<?xml version="1.0" encoding="UTF-8"?>
<svg xmlns="http://www.w3.org/2000/svg" xmlns:xlink="http://www.w3.org/1999/xlink" width="74px" height="74px" viewBox="0 0 74 74" version="1.1">
<g id="surface1">
<path style=" stroke:none;fill-rule:nonzero;fill:rgb(0%,0%,0%);fill-opacity:1;" d="M 24.535156 14.957031 C 24.707031 14.957031 24.875 14.953125 25.050781 14.953125 C 25.328125 14.953125 25.328125 14.953125 25.613281 14.957031 C 25.8125 14.957031 26.011719 14.953125 26.210938 14.953125 C 26.746094 14.949219 27.285156 14.953125 27.824219 14.953125 C 28.390625 14.953125 28.953125 14.953125 29.519531 14.953125 C 30.46875 14.953125 31.417969 14.953125 32.367188 14.957031 C 33.460938 14.960938 34.554688 14.957031 35.648438 14.953125 C 36.589844 14.953125 37.53125 14.953125 38.472656 14.953125 C 39.035156 14.953125 39.597656 14.953125 40.15625 14.953125 C 40.6875 14.949219 41.214844 14.953125 41.746094 14.957031 C 42.027344 14.957031 42.3125 14.953125 42.597656 14.953125 C 44.335938 14.96875 45.703125 15.40625 46.972656 16.621094 C 48.441406 18.160156 48.667969 19.8125 48.660156 21.851562 C 48.660156 22.214844 48.671875 22.574219 48.679688 22.933594 C 48.699219 24.855469 48.699219 24.855469 48.078125 25.574219 C 47.90625 25.726562 47.730469 25.875 47.550781 26.015625 C 47.40625 26.160156 47.257812 26.300781 47.117188 26.449219 C 47.199219 26.488281 47.28125 26.527344 47.367188 26.566406 C 48.363281 27.074219 49.085938 27.699219 49.628906 28.6875 C 49.929688 29.890625 49.917969 30.859375 49.332031 31.96875 C 48.777344 32.640625 48.132812 33.324219 47.261719 33.53125 C 46.828125 33.550781 46.394531 33.546875 45.960938 33.53125 C 45.949219 33.675781 45.933594 33.820312 45.917969 33.972656 C 45.832031 34.566406 45.605469 35.066406 45.320312 35.589844 C 45.269531 35.683594 45.21875 35.777344 45.164062 35.875 C 44.472656 37.101562 43.609375 38.082031 42.402344 38.816406 C 41.882812 39.140625 41.882812 39.140625 41.679688 39.695312 C 41.679688 40.0625 41.714844 40.398438 41.769531 40.757812 C 43.199219 41.664062 44.648438 41.574219 46.277344 41.5625 C 46.667969 41.558594 47.054688 41.558594 47.445312 41.558594 C 47.6875 41.5625 47.929688 41.558594 48.167969 41.554688 C 49.140625 41.5625 49.890625 41.839844 50.621094 42.492188 C 50.699219 42.585938 50.777344 42.683594 50.855469 42.78125 C 50.9375 42.875 51.015625 42.972656 51.101562 43.070312 C 51.480469 43.597656 51.636719 44.019531 51.695312 44.667969 C 51.710938 44.792969 51.722656 44.917969 51.734375 45.042969 C 51.742188 45.382812 51.742188 45.382812 51.597656 45.816406 C 51.679688 45.847656 51.765625 45.882812 51.851562 45.914062 C 53.097656 46.644531 53.859375 48.507812 54.253906 49.855469 C 54.4375 50.753906 54.394531 51.671875 54.386719 52.589844 C 54.386719 52.804688 54.382812 53.023438 54.382812 53.242188 C 54.382812 53.8125 54.378906 54.382812 54.375 54.953125 C 54.367188 55.535156 54.367188 56.117188 54.363281 56.703125 C 54.359375 57.84375 54.351562 58.984375 54.34375 60.125 C 54.429688 60.125 54.515625 60.125 54.605469 60.125 C 56.691406 60.109375 58.78125 60.101562 60.871094 60.09375 C 61.882812 60.09375 62.890625 60.089844 63.902344 60.082031 C 64.878906 60.074219 65.851562 60.070312 66.828125 60.070312 C 67.199219 60.070312 67.570312 60.066406 67.941406 60.0625 C 68.464844 60.058594 68.984375 60.058594 69.503906 60.058594 C 69.660156 60.058594 69.8125 60.054688 69.972656 60.054688 C 71.011719 60.058594 71.011719 60.058594 71.492188 60.382812 C 71.699219 60.722656 71.761719 60.898438 71.761719 61.289062 C 71.765625 61.460938 71.765625 61.460938 71.769531 61.636719 C 71.765625 61.816406 71.765625 61.816406 71.765625 62.003906 C 71.765625 62.128906 71.765625 62.257812 71.765625 62.386719 C 71.765625 62.652344 71.765625 62.917969 71.761719 63.183594 C 71.761719 63.59375 71.761719 64 71.765625 64.40625 C 71.765625 64.664062 71.765625 64.925781 71.765625 65.183594 C 71.765625 65.304688 71.765625 65.425781 71.769531 65.550781 C 71.757812 66.097656 71.75 66.394531 71.4375 66.851562 C 71.058594 67.09375 70.867188 67.128906 70.421875 67.117188 C 70.226562 67.117188 70.226562 67.117188 70.03125 67.113281 C 69.898438 67.109375 69.765625 67.105469 69.628906 67.097656 C 69.492188 67.097656 69.355469 67.09375 69.21875 67.089844 C 68.886719 67.082031 68.550781 67.074219 68.21875 67.0625 C 68.222656 67.183594 68.226562 67.300781 68.226562 67.425781 C 68.238281 67.964844 68.246094 68.507812 68.253906 69.050781 C 68.257812 69.238281 68.265625 69.425781 68.269531 69.621094 C 68.269531 69.800781 68.273438 69.980469 68.273438 70.167969 C 68.277344 70.335938 68.28125 70.5 68.285156 70.671875 C 68.203125 71.222656 68.078125 71.355469 67.640625 71.6875 C 67.175781 71.761719 67.175781 71.761719 66.613281 71.761719 C 66.511719 71.761719 66.40625 71.761719 66.300781 71.761719 C 65.949219 71.765625 65.597656 71.761719 65.25 71.761719 C 64.996094 71.761719 64.742188 71.761719 64.488281 71.761719 C 63.792969 71.765625 63.097656 71.765625 62.402344 71.761719 C 61.652344 71.761719 60.902344 71.765625 60.148438 71.765625 C 58.679688 71.769531 57.210938 71.765625 55.738281 71.765625 C 54.542969 71.765625 53.347656 71.765625 52.152344 71.765625 C 51.898438 71.765625 51.898438 71.765625 51.640625 71.765625 C 51.292969 71.765625 50.949219 71.765625 50.605469 71.765625 C 47.367188 71.765625 44.128906 71.765625 40.894531 71.761719 C 38.113281 71.757812 35.332031 71.761719 32.554688 71.761719 C 29.328125 71.765625 26.101562 71.765625 22.875 71.765625 C 22.535156 71.765625 22.191406 71.765625 21.847656 71.765625 C 21.675781 71.765625 21.507812 71.765625 21.332031 71.765625 C 20.140625 71.765625 18.945312 71.765625 17.75 71.765625 C 16.296875 71.769531 14.84375 71.765625 13.390625 71.765625 C 12.648438 71.761719 11.90625 71.761719 11.164062 71.765625 C 10.484375 71.765625 9.804688 71.765625 9.125 71.761719 C 8.878906 71.761719 8.632812 71.761719 8.386719 71.761719 C 8.054688 71.765625 7.71875 71.761719 7.386719 71.761719 C 7.199219 71.761719 7.015625 71.761719 6.824219 71.761719 C 6.277344 71.675781 6.105469 71.550781 5.78125 71.109375 C 5.714844 70.671875 5.714844 70.671875 5.726562 70.167969 C 5.726562 69.988281 5.730469 69.804688 5.730469 69.621094 C 5.734375 69.433594 5.738281 69.242188 5.746094 69.050781 C 5.75 68.765625 5.75 68.765625 5.753906 68.472656 C 5.761719 68.003906 5.769531 67.53125 5.78125 67.0625 C 5.695312 67.066406 5.613281 67.070312 5.523438 67.070312 C 5.140625 67.082031 4.757812 67.089844 4.371094 67.097656 C 4.238281 67.101562 4.105469 67.109375 3.96875 67.113281 C 3.777344 67.117188 3.777344 67.117188 3.578125 67.117188 C 3.460938 67.121094 3.34375 67.125 3.222656 67.128906 C 2.738281 67.03125 2.589844 66.890625 2.3125 66.484375 C 2.226562 66.050781 2.230469 65.625 2.234375 65.183594 C 2.234375 65.058594 2.234375 64.929688 2.234375 64.800781 C 2.234375 64.535156 2.234375 64.269531 2.238281 64.003906 C 2.238281 63.59375 2.238281 63.1875 2.234375 62.78125 C 2.234375 62.523438 2.234375 62.261719 2.234375 62.003906 C 2.234375 61.820312 2.234375 61.820312 2.230469 61.636719 C 2.234375 61.519531 2.234375 61.40625 2.238281 61.289062 C 2.238281 61.191406 2.238281 61.089844 2.238281 60.988281 C 2.359375 60.527344 2.492188 60.390625 2.890625 60.125 C 3.425781 60.039062 3.957031 60.050781 4.496094 60.058594 C 4.660156 60.058594 4.824219 60.058594 4.992188 60.058594 C 5.53125 60.058594 6.074219 60.0625 6.613281 60.070312 C 6.988281 60.070312 7.363281 60.070312 7.738281 60.070312 C 8.625 60.074219 9.511719 60.078125 10.398438 60.082031 C 11.410156 60.089844 12.417969 60.09375 13.425781 60.097656 C 15.503906 60.101562 17.578125 60.113281 19.65625 60.125 C 19.65625 60.007812 19.652344 59.886719 19.652344 59.765625 C 19.636719 58.640625 19.625 57.519531 19.617188 56.394531 C 19.613281 55.816406 19.609375 55.238281 19.601562 54.660156 C 19.59375 54.101562 19.589844 53.539062 19.585938 52.980469 C 19.585938 52.769531 19.582031 52.558594 19.578125 52.347656 C 19.542969 50.183594 20.003906 48.386719 21.390625 46.683594 C 21.460938 46.589844 21.53125 46.5 21.605469 46.402344 C 21.765625 46.199219 21.9375 46.007812 22.113281 45.816406 C 22.207031 45.816406 22.304688 45.816406 22.402344 45.816406 C 22.371094 45.652344 22.335938 45.488281 22.304688 45.320312 C 22.199219 44.453125 22.421875 43.761719 22.90625 43.039062 C 23.503906 42.300781 24.210938 41.730469 25.175781 41.574219 C 25.511719 41.558594 25.84375 41.554688 26.179688 41.5625 C 26.433594 41.5625 26.6875 41.558594 26.9375 41.558594 C 27.332031 41.558594 27.722656 41.5625 28.113281 41.566406 C 30.265625 41.585938 30.265625 41.585938 32.230469 40.757812 C 32.328125 40.234375 32.375 39.835938 32.230469 39.3125 C 31.839844 38.925781 31.40625 38.632812 30.953125 38.328125 C 29.527344 37.34375 28.433594 35.597656 28.078125 33.894531 C 28.058594 33.714844 28.058594 33.714844 28.039062 33.53125 C 27.957031 33.539062 27.878906 33.542969 27.796875 33.550781 C 26.765625 33.601562 26.082031 33.386719 25.300781 32.707031 C 24.550781 31.933594 24.164062 31.09375 24.125 30.011719 C 24.199219 28.910156 24.609375 28.082031 25.417969 27.34375 C 25.871094 26.957031 26.347656 26.703125 26.882812 26.449219 C 26.808594 26.375 26.734375 26.304688 26.660156 26.226562 C 26.328125 25.898438 25.996094 25.570312 25.664062 25.238281 C 25.546875 25.125 25.429688 25.007812 25.3125 24.890625 C 25.203125 24.78125 25.089844 24.671875 24.976562 24.558594 C 24.875 24.457031 24.773438 24.355469 24.667969 24.25 C 24.265625 23.820312 24.226562 23.46875 24.226562 22.886719 C 24.3125 22.347656 24.582031 21.925781 24.859375 21.460938 C 25.050781 20.988281 24.972656 20.730469 24.859375 20.234375 C 24.6875 19.828125 24.6875 19.828125 24.464844 19.429688 C 24.386719 19.28125 24.308594 19.132812 24.230469 18.980469 C 24.066406 18.671875 23.902344 18.367188 23.734375 18.058594 C 22.957031 16.5625 22.957031 16.5625 23.125 15.609375 C 23.554688 15.050781 23.84375 14.957031 24.535156 14.957031 Z M 24.535156 14.957031 "/>
<path style=" stroke:none;fill-rule:nonzero;fill:rgb(34.901962%,66.274512%,90.196079%);fill-opacity:1;" d="M 8.980469 2.234375 C 9.1875 2.234375 9.394531 2.234375 9.601562 2.234375 C 10.035156 2.234375 10.46875 2.234375 10.902344 2.238281 C 11.453125 2.242188 12.003906 2.238281 12.550781 2.234375 C 12.980469 2.234375 13.410156 2.234375 13.835938 2.234375 C 14.039062 2.234375 14.242188 2.234375 14.445312 2.234375 C 16.34375 2.222656 17.824219 2.566406 19.222656 3.902344 C 20.480469 5.222656 20.902344 6.664062 20.886719 8.460938 C 20.886719 8.617188 20.890625 8.777344 20.890625 8.941406 C 20.894531 9.460938 20.890625 9.976562 20.890625 10.496094 C 20.890625 10.859375 20.890625 11.222656 20.890625 11.585938 C 20.890625 12.347656 20.890625 13.105469 20.886719 13.863281 C 20.882812 14.738281 20.886719 15.613281 20.890625 16.488281 C 20.890625 17.332031 20.890625 18.179688 20.890625 19.027344 C 20.890625 19.382812 20.890625 19.742188 20.890625 20.097656 C 20.894531 20.601562 20.890625 21.101562 20.886719 21.601562 C 20.886719 21.746094 20.890625 21.894531 20.890625 22.042969 C 20.871094 23.664062 20.34375 24.988281 19.222656 26.160156 C 17.730469 27.585938 16.152344 27.839844 14.144531 27.828125 C 13.9375 27.828125 13.730469 27.828125 13.523438 27.828125 C 13.089844 27.828125 12.65625 27.828125 12.222656 27.824219 C 11.671875 27.820312 11.121094 27.824219 10.574219 27.828125 C 10.144531 27.828125 9.714844 27.828125 9.289062 27.828125 C 9.085938 27.828125 8.882812 27.828125 8.679688 27.828125 C 6.78125 27.839844 5.300781 27.496094 3.902344 26.160156 C 2.644531 24.839844 2.222656 23.398438 2.238281 21.601562 C 2.238281 21.445312 2.234375 21.285156 2.234375 21.121094 C 2.230469 20.601562 2.234375 20.085938 2.234375 19.566406 C 2.234375 19.203125 2.234375 18.839844 2.234375 18.476562 C 2.234375 17.714844 2.234375 16.957031 2.238281 16.199219 C 2.242188 15.324219 2.238281 14.449219 2.234375 13.574219 C 2.234375 12.730469 2.234375 11.882812 2.234375 11.035156 C 2.234375 10.679688 2.234375 10.320312 2.234375 9.964844 C 2.230469 9.460938 2.234375 8.960938 2.238281 8.460938 C 2.238281 8.316406 2.234375 8.167969 2.234375 8.019531 C 2.253906 6.398438 2.78125 5.074219 3.902344 3.902344 C 5.394531 2.476562 6.972656 2.222656 8.980469 2.234375 Z M 8.980469 2.234375 "/>
<path style=" stroke:none;fill-rule:nonzero;fill:rgb(0%,0%,0%);fill-opacity:1;" d="M 64.675781 3.257812 C 65.75 4.019531 66.625 5.117188 67 6.390625 C 67.144531 7.335938 67.09375 8.300781 67.0625 9.25 C 67.324219 9.242188 67.324219 9.242188 67.59375 9.234375 C 68.695312 9.238281 69.65625 9.703125 70.453125 10.449219 C 71.523438 11.636719 71.773438 12.898438 71.734375 14.453125 C 71.664062 15.667969 71.140625 16.679688 70.242188 17.488281 C 69.097656 18.351562 68.066406 18.542969 66.65625 18.542969 C 66.5 18.542969 66.347656 18.542969 66.183594 18.546875 C 65.671875 18.546875 65.15625 18.546875 64.644531 18.546875 C 64.285156 18.550781 63.925781 18.550781 63.570312 18.550781 C 62.816406 18.554688 62.066406 18.554688 61.316406 18.554688 C 60.355469 18.554688 59.398438 18.558594 58.4375 18.5625 C 57.695312 18.566406 56.957031 18.566406 56.21875 18.566406 C 55.863281 18.566406 55.507812 18.566406 55.15625 18.570312 C 54.660156 18.574219 54.164062 18.570312 53.667969 18.570312 C 53.523438 18.570312 53.378906 18.574219 53.230469 18.574219 C 51.9375 18.5625 50.757812 18.21875 49.804688 17.316406 C 48.769531 16.140625 48.371094 14.871094 48.4375 13.308594 C 48.613281 11.988281 49.203125 10.949219 50.242188 10.117188 C 50.855469 9.667969 51.257812 9.394531 52.03125 9.394531 C 52.019531 9.226562 52.007812 9.0625 51.996094 8.890625 C 52 8.03125 52.296875 7.414062 52.878906 6.792969 C 53.882812 5.878906 54.597656 5.734375 55.933594 5.78125 C 55.964844 5.6875 55.992188 5.589844 56.023438 5.492188 C 56.6875 4.042969 57.804688 3.183594 59.246094 2.566406 C 61.09375 1.890625 63.042969 2.246094 64.675781 3.257812 Z M 64.675781 3.257812 "/>
<path style=" stroke:none;fill-rule:nonzero;fill:rgb(77.254903%,76.862746%,78.823531%);fill-opacity:1;" d="M 26.390625 43.847656 C 26.484375 43.847656 26.578125 43.847656 26.675781 43.84375 C 26.992188 43.84375 27.304688 43.84375 27.617188 43.847656 C 27.84375 43.847656 28.066406 43.847656 28.292969 43.847656 C 28.90625 43.84375 29.515625 43.847656 30.128906 43.851562 C 30.765625 43.851562 31.40625 43.851562 32.046875 43.851562 C 33.121094 43.851562 34.195312 43.855469 35.269531 43.859375 C 36.511719 43.863281 37.753906 43.867188 38.996094 43.863281 C 40.191406 43.863281 41.386719 43.867188 42.582031 43.867188 C 43.089844 43.871094 43.597656 43.871094 44.109375 43.871094 C 44.707031 43.871094 45.304688 43.871094 45.902344 43.875 C 46.125 43.875 46.34375 43.875 46.5625 43.875 C 46.863281 43.875 47.164062 43.878906 47.464844 43.878906 C 47.632812 43.882812 47.800781 43.882812 47.972656 43.882812 C 48.46875 43.945312 48.742188 44.074219 49.140625 44.371094 C 49.675781 45.441406 49.007812 47.46875 48.816406 48.609375 C 48.785156 48.800781 48.75 48.992188 48.71875 49.183594 C 48.652344 49.578125 48.585938 49.972656 48.519531 50.371094 C 48.433594 50.878906 48.347656 51.386719 48.265625 51.890625 C 48.183594 52.378906 48.101562 52.867188 48.019531 53.351562 C 47.988281 53.535156 47.960938 53.714844 47.929688 53.902344 C 47.886719 54.15625 47.886719 54.15625 47.84375 54.410156 C 47.816406 54.558594 47.792969 54.707031 47.765625 54.859375 C 47.695312 55.210938 47.695312 55.210938 47.550781 55.5 C 40.585938 55.5 33.625 55.5 26.449219 55.5 C 26.273438 54.800781 26.113281 54.136719 25.996094 53.433594 C 25.953125 53.175781 25.953125 53.175781 25.90625 52.917969 C 25.863281 52.644531 25.863281 52.644531 25.816406 52.371094 C 25.785156 52.179688 25.75 51.988281 25.71875 51.796875 C 25.652344 51.402344 25.585938 51.003906 25.519531 50.605469 C 25.4375 50.101562 25.351562 49.59375 25.265625 49.085938 C 25.199219 48.695312 25.132812 48.300781 25.066406 47.910156 C 25.023438 47.632812 24.976562 47.355469 24.929688 47.078125 C 24.851562 46.609375 24.777344 46.140625 24.714844 45.671875 C 24.699219 45.566406 24.6875 45.460938 24.671875 45.351562 C 24.632812 44.851562 24.707031 44.671875 25.019531 44.277344 C 25.523438 43.867188 25.75 43.847656 26.390625 43.847656 Z M 26.390625 43.847656 "/>
<path style=" stroke:none;fill-rule:nonzero;fill:rgb(0%,0%,0%);fill-opacity:1;" d="M 8.980469 2.234375 C 9.1875 2.234375 9.394531 2.234375 9.601562 2.234375 C 10.035156 2.234375 10.46875 2.234375 10.902344 2.238281 C 11.453125 2.242188 12.003906 2.238281 12.550781 2.234375 C 12.980469 2.234375 13.410156 2.234375 13.835938 2.234375 C 14.039062 2.234375 14.242188 2.234375 14.445312 2.234375 C 16.34375 2.222656 17.824219 2.566406 19.222656 3.902344 C 20.480469 5.222656 20.902344 6.664062 20.886719 8.460938 C 20.886719 8.617188 20.890625 8.777344 20.890625 8.941406 C 20.894531 9.460938 20.890625 9.976562 20.890625 10.496094 C 20.890625 10.859375 20.890625 11.222656 20.890625 11.585938 C 20.890625 12.347656 20.890625 13.105469 20.886719 13.863281 C 20.882812 14.738281 20.886719 15.613281 20.890625 16.488281 C 20.890625 17.332031 20.890625 18.179688 20.890625 19.027344 C 20.890625 19.382812 20.890625 19.742188 20.890625 20.097656 C 20.894531 20.601562 20.890625 21.101562 20.886719 21.601562 C 20.886719 21.746094 20.890625 21.894531 20.890625 22.042969 C 20.871094 23.664062 20.34375 24.988281 19.222656 26.160156 C 17.730469 27.585938 16.152344 27.839844 14.144531 27.828125 C 13.9375 27.828125 13.730469 27.828125 13.523438 27.828125 C 13.089844 27.828125 12.65625 27.828125 12.222656 27.824219 C 11.671875 27.820312 11.121094 27.824219 10.574219 27.828125 C 10.144531 27.828125 9.714844 27.828125 9.289062 27.828125 C 9.085938 27.828125 8.882812 27.828125 8.679688 27.828125 C 6.78125 27.839844 5.300781 27.496094 3.902344 26.160156 C 2.644531 24.839844 2.222656 23.398438 2.238281 21.601562 C 2.238281 21.445312 2.234375 21.285156 2.234375 21.121094 C 2.230469 20.601562 2.234375 20.085938 2.234375 19.566406 C 2.234375 19.203125 2.234375 18.839844 2.234375 18.476562 C 2.234375 17.714844 2.234375 16.957031 2.238281 16.199219 C 2.242188 15.324219 2.238281 14.449219 2.234375 13.574219 C 2.234375 12.730469 2.234375 11.882812 2.234375 11.035156 C 2.234375 10.679688 2.234375 10.320312 2.234375 9.964844 C 2.230469 9.460938 2.234375 8.960938 2.238281 8.460938 C 2.238281 8.316406 2.234375 8.167969 2.234375 8.019531 C 2.253906 6.398438 2.78125 5.074219 3.902344 3.902344 C 5.394531 2.476562 6.972656 2.222656 8.980469 2.234375 Z M 5.4375 5.84375 C 5.34375 5.953125 5.25 6.058594 5.15625 6.167969 C 4.566406 6.984375 4.582031 7.734375 4.582031 8.707031 C 4.582031 8.855469 4.582031 9.003906 4.578125 9.160156 C 4.578125 9.652344 4.578125 10.140625 4.578125 10.632812 C 4.574219 10.976562 4.574219 11.320312 4.574219 11.660156 C 4.570312 12.378906 4.570312 13.097656 4.570312 13.816406 C 4.570312 14.734375 4.566406 15.652344 4.5625 16.574219 C 4.558594 17.28125 4.558594 17.988281 4.558594 18.695312 C 4.558594 19.035156 4.558594 19.375 4.554688 19.710938 C 4.550781 20.1875 4.554688 20.660156 4.554688 21.136719 C 4.554688 21.273438 4.550781 21.414062 4.550781 21.554688 C 4.558594 22.640625 4.804688 23.527344 5.519531 24.363281 C 5.625 24.453125 5.734375 24.542969 5.84375 24.632812 C 5.953125 24.726562 6.058594 24.816406 6.167969 24.914062 C 6.785156 25.34375 7.308594 25.472656 8.058594 25.476562 C 8.222656 25.480469 8.382812 25.480469 8.554688 25.480469 C 8.816406 25.480469 8.816406 25.480469 9.085938 25.480469 C 9.265625 25.480469 9.449219 25.480469 9.636719 25.484375 C 10.019531 25.484375 10.40625 25.484375 10.792969 25.484375 C 11.28125 25.480469 11.769531 25.484375 12.261719 25.488281 C 12.730469 25.492188 13.203125 25.488281 13.675781 25.488281 C 13.847656 25.492188 14.023438 25.492188 14.203125 25.492188 C 15.304688 25.488281 16.300781 25.410156 17.238281 24.785156 C 17.3125 24.707031 17.386719 24.632812 17.460938 24.550781 C 17.535156 24.476562 17.613281 24.402344 17.691406 24.324219 C 18.398438 23.304688 18.585938 22.367188 18.574219 21.140625 C 18.574219 20.992188 18.578125 20.84375 18.578125 20.691406 C 18.582031 20.199219 18.578125 19.710938 18.578125 19.222656 C 18.578125 18.878906 18.578125 18.539062 18.578125 18.195312 C 18.578125 17.480469 18.578125 16.765625 18.574219 16.050781 C 18.570312 15.132812 18.574219 14.21875 18.578125 13.304688 C 18.578125 12.597656 18.578125 11.890625 18.578125 11.1875 C 18.578125 10.847656 18.578125 10.511719 18.578125 10.171875 C 18.582031 9.699219 18.578125 9.230469 18.574219 8.757812 C 18.574219 8.617188 18.578125 8.480469 18.578125 8.335938 C 18.5625 7.226562 18.253906 6.324219 17.460938 5.519531 C 17.386719 5.441406 17.3125 5.363281 17.238281 5.28125 C 16.160156 4.550781 14.949219 4.558594 13.6875 4.5625 C 13.507812 4.5625 13.328125 4.5625 13.140625 4.558594 C 12.757812 4.558594 12.375 4.558594 11.992188 4.558594 C 11.507812 4.5625 11.019531 4.558594 10.53125 4.554688 C 10.066406 4.550781 9.597656 4.554688 9.128906 4.554688 C 8.953125 4.550781 8.78125 4.550781 8.601562 4.546875 C 7.273438 4.558594 6.335938 4.789062 5.4375 5.84375 Z M 5.4375 5.84375 "/>
<path style=" stroke:none;fill-rule:nonzero;fill:rgb(66.274512%,48.627451%,31.37255%);fill-opacity:1;" d="M 4.625 62.4375 C 25.992188 62.4375 47.359375 62.4375 69.375 62.4375 C 69.375 63.199219 69.375 63.964844 69.375 64.75 C 48.007812 64.75 26.640625 64.75 4.625 64.75 C 4.625 63.988281 4.625 63.222656 4.625 62.4375 Z M 4.625 62.4375 "/>
<path style=" stroke:none;fill-rule:nonzero;fill:rgb(89.411765%,89.803922%,90.196079%);fill-opacity:1;" d="M 63.003906 5.011719 C 63.863281 5.5625 64.464844 6.234375 64.75 7.226562 C 64.851562 8.089844 64.75 8.753906 64.414062 9.546875 C 64.238281 10.054688 64.253906 10.453125 64.316406 10.984375 C 64.574219 11.289062 64.789062 11.402344 65.183594 11.457031 C 65.539062 11.476562 65.894531 11.488281 66.25 11.492188 C 67.214844 11.5 67.996094 11.519531 68.746094 12.21875 C 69.375 13.039062 69.488281 13.566406 69.375 14.597656 C 69.054688 15.238281 68.660156 15.636719 68.074219 16.042969 C 67.671875 16.175781 67.433594 16.207031 67.019531 16.207031 C 66.828125 16.210938 66.828125 16.210938 66.632812 16.210938 C 66.496094 16.210938 66.355469 16.210938 66.210938 16.214844 C 66.066406 16.214844 65.917969 16.214844 65.765625 16.214844 C 65.28125 16.21875 64.796875 16.21875 64.308594 16.222656 C 64.144531 16.222656 63.976562 16.222656 63.804688 16.222656 C 62.929688 16.226562 62.050781 16.230469 61.171875 16.230469 C 60.265625 16.230469 59.355469 16.238281 58.449219 16.242188 C 57.753906 16.246094 57.054688 16.246094 56.355469 16.246094 C 56.023438 16.25 55.6875 16.25 55.355469 16.253906 C 54.886719 16.257812 54.417969 16.257812 53.949219 16.253906 C 53.8125 16.257812 53.671875 16.257812 53.53125 16.261719 C 52.714844 16.253906 52.242188 16.160156 51.597656 15.609375 C 50.960938 14.886719 50.824219 14.464844 50.835938 13.519531 C 50.914062 12.800781 51.308594 12.410156 51.832031 11.949219 C 52.316406 11.605469 52.582031 11.546875 53.167969 11.515625 C 53.652344 11.472656 53.875 11.441406 54.289062 11.175781 C 54.546875 10.746094 54.542969 10.464844 54.488281 9.972656 C 54.441406 9.878906 54.394531 9.78125 54.34375 9.683594 C 54.265625 9.097656 54.292969 8.882812 54.652344 8.402344 C 55.132812 8.042969 55.347656 8.015625 55.933594 8.09375 C 56.027344 8.140625 56.125 8.1875 56.222656 8.238281 C 56.890625 8.3125 56.890625 8.3125 57.472656 8.054688 C 57.695312 7.769531 57.757812 7.558594 57.839844 7.207031 C 58.160156 6.1875 58.886719 5.371094 59.808594 4.832031 C 60.863281 4.382812 62 4.5 63.003906 5.011719 Z M 63.003906 5.011719 "/>
<path style=" stroke:none;fill-rule:nonzero;fill:rgb(66.274512%,48.627451%,31.37255%);fill-opacity:1;" d="M 8.09375 67.0625 C 27.171875 67.0625 46.25 67.0625 65.90625 67.0625 C 65.90625 67.824219 65.90625 68.589844 65.90625 69.375 C 46.828125 69.375 27.75 69.375 8.09375 69.375 C 8.09375 68.613281 8.09375 67.847656 8.09375 67.0625 Z M 8.09375 67.0625 "/>
<path style=" stroke:none;fill-rule:nonzero;fill:rgb(23.529412%,60.000002%,88.235295%);fill-opacity:1;" d="M 18.210938 6.792969 C 18.511719 7.242188 18.535156 7.34375 18.539062 7.855469 C 18.539062 7.984375 18.542969 8.113281 18.542969 8.246094 C 18.542969 8.386719 18.542969 8.53125 18.542969 8.675781 C 18.542969 8.824219 18.542969 8.972656 18.546875 9.125 C 18.546875 9.621094 18.546875 10.113281 18.546875 10.605469 C 18.550781 10.949219 18.550781 11.292969 18.550781 11.636719 C 18.554688 12.355469 18.554688 13.074219 18.554688 13.796875 C 18.554688 14.714844 18.558594 15.636719 18.5625 16.558594 C 18.566406 17.265625 18.566406 17.976562 18.566406 18.683594 C 18.566406 19.023438 18.566406 19.363281 18.570312 19.703125 C 18.574219 20.179688 18.570312 20.65625 18.570312 21.132812 C 18.570312 21.269531 18.574219 21.410156 18.574219 21.554688 C 18.566406 22.675781 18.28125 23.738281 17.460938 24.550781 C 17.386719 24.628906 17.3125 24.707031 17.238281 24.785156 C 16.144531 25.511719 14.945312 25.5 13.675781 25.488281 C 13.492188 25.488281 13.308594 25.488281 13.121094 25.488281 C 12.738281 25.488281 12.351562 25.488281 11.96875 25.484375 C 11.480469 25.484375 10.988281 25.484375 10.496094 25.484375 C 10.027344 25.484375 9.554688 25.484375 9.085938 25.480469 C 8.820312 25.480469 8.820312 25.480469 8.554688 25.480469 C 8.390625 25.480469 8.226562 25.480469 8.058594 25.476562 C 7.914062 25.476562 7.769531 25.476562 7.621094 25.476562 C 7.203125 25.433594 6.886719 25.324219 6.503906 25.148438 C 6.578125 25.035156 6.578125 25.035156 6.65625 24.921875 C 7.253906 24.027344 7.84375 23.128906 8.429688 22.230469 C 8.523438 22.085938 8.617188 21.941406 8.714844 21.792969 C 9.425781 20.695312 10.136719 19.601562 10.839844 18.5 C 9.933594 18.5 9.027344 18.5 8.09375 18.5 C 8.09375 17.738281 8.09375 16.972656 8.09375 16.1875 C 8.390625 16.199219 8.691406 16.214844 8.996094 16.226562 C 9.289062 16.230469 9.582031 16.234375 9.875 16.238281 C 10.078125 16.238281 10.277344 16.246094 10.480469 16.257812 C 10.578125 16.261719 10.671875 16.265625 10.773438 16.273438 C 10.859375 16.277344 10.945312 16.28125 11.035156 16.289062 C 11.503906 16.265625 11.96875 16.140625 12.429688 16.042969 C 13.074219 15.042969 13.074219 15.042969 13.730469 14.019531 C 10.941406 13.949219 10.941406 13.949219 8.09375 13.875 C 8.09375 13.113281 8.09375 12.347656 8.09375 11.5625 C 10.503906 11.5625 12.910156 11.5625 15.320312 11.5625 C 15.507812 11.328125 15.507812 11.328125 15.691406 11.019531 C 15.765625 10.902344 15.835938 10.785156 15.910156 10.667969 C 15.988281 10.542969 16.0625 10.417969 16.140625 10.289062 C 16.300781 10.035156 16.457031 9.785156 16.613281 9.53125 C 16.6875 9.410156 16.765625 9.285156 16.84375 9.160156 C 17.183594 8.609375 17.539062 8.0625 17.890625 7.519531 C 18.085938 7.214844 18.085938 7.214844 18.210938 6.792969 Z M 18.210938 6.792969 "/>
<path style=" stroke:none;fill-rule:nonzero;fill:rgb(33.725491%,33.333334%,35.686275%);fill-opacity:1;" d="M 26.160156 17.34375 C 28.398438 17.332031 30.636719 17.320312 32.875 17.3125 C 33.917969 17.3125 34.957031 17.308594 35.996094 17.300781 C 36.902344 17.292969 37.808594 17.289062 38.714844 17.289062 C 39.195312 17.289062 39.675781 17.285156 40.15625 17.28125 C 40.691406 17.277344 41.226562 17.277344 41.765625 17.277344 C 41.921875 17.277344 42.078125 17.273438 42.242188 17.273438 C 43.382812 17.277344 44.292969 17.484375 45.175781 18.238281 C 45.265625 18.34375 45.355469 18.453125 45.445312 18.5625 C 45.585938 18.722656 45.585938 18.722656 45.726562 18.886719 C 46.648438 20.203125 46.511719 22.328125 46.25 23.847656 C 45.929688 24.59375 45.382812 25.074219 44.660156 25.4375 C 44.28125 25.507812 44.28125 25.507812 43.9375 25.4375 C 43.207031 24.933594 43.066406 24.078125 42.824219 23.273438 C 42.632812 22.660156 42.632812 22.660156 42.238281 22.171875 C 41.640625 22.0625 41.148438 22.105469 40.625 22.429688 C 40.320312 22.660156 40.027344 22.898438 39.738281 23.144531 C 37.382812 25.023438 35.191406 25.535156 32.222656 25.609375 C 32.03125 25.613281 32.03125 25.613281 31.839844 25.617188 C 30.363281 25.640625 29.203125 25.613281 28.066406 24.558594 C 27.625 24.058594 27.226562 23.550781 26.882812 22.980469 C 27.035156 22.503906 27.195312 22.066406 27.414062 21.617188 C 27.71875 20.789062 27.515625 20.167969 27.164062 19.390625 C 27.042969 19.144531 26.921875 18.898438 26.800781 18.652344 C 26.738281 18.527344 26.679688 18.402344 26.617188 18.269531 C 26.464844 17.960938 26.3125 17.652344 26.160156 17.34375 Z M 26.160156 17.34375 "/>
<path style=" stroke:none;fill-rule:nonzero;fill:rgb(99.215686%,76.47059%,46.27451%);fill-opacity:1;" d="M 40.902344 25.003906 C 41.285156 25.195312 41.285156 25.355469 41.425781 25.753906 C 41.75 26.507812 42.203125 26.941406 42.925781 27.316406 C 43.261719 27.417969 43.597656 27.515625 43.9375 27.605469 C 43.949219 28.1875 43.957031 28.773438 43.960938 29.355469 C 43.964844 29.550781 43.964844 29.75 43.96875 29.945312 C 44.015625 32.335938 43.644531 34.375 41.976562 36.167969 C 40.371094 37.683594 38.585938 38.238281 36.417969 38.191406 C 34.558594 38.039062 32.96875 37.175781 31.695312 35.832031 C 30.234375 33.984375 30.015625 32.042969 30.042969 29.753906 C 30.046875 29.558594 30.046875 29.363281 30.046875 29.167969 C 30.050781 28.695312 30.054688 28.222656 30.0625 27.75 C 30.207031 27.746094 30.351562 27.746094 30.5 27.742188 C 31.046875 27.730469 31.589844 27.71875 32.136719 27.703125 C 32.371094 27.699219 32.605469 27.695312 32.839844 27.6875 C 34.59375 27.65625 36.25 27.601562 37.867188 26.855469 C 37.964844 26.8125 38.0625 26.769531 38.164062 26.722656 C 39.132812 26.273438 40.140625 25.765625 40.902344 25.003906 Z M 40.902344 25.003906 "/>
<path style=" stroke:none;fill-rule:nonzero;fill:rgb(54.509807%,36.862746%,23.529412%);fill-opacity:1;" d="M 8.09375 67.0625 C 27.171875 67.0625 46.25 67.0625 65.90625 67.0625 C 65.90625 67.445312 65.90625 67.824219 65.90625 68.21875 C 46.828125 68.21875 27.75 68.21875 8.09375 68.21875 C 8.09375 67.835938 8.09375 67.457031 8.09375 67.0625 Z M 8.09375 67.0625 "/>
<path style=" stroke:none;fill-rule:nonzero;fill:rgb(67.058825%,66.666669%,69.01961%);fill-opacity:1;" d="M 26.59375 57.8125 C 33.460938 57.8125 40.328125 57.8125 47.40625 57.8125 C 47.40625 59.484375 47.40625 59.484375 46.972656 59.980469 C 46.527344 60.128906 46.226562 60.144531 45.761719 60.144531 C 45.597656 60.144531 45.4375 60.148438 45.273438 60.148438 C 45.09375 60.148438 44.917969 60.148438 44.734375 60.148438 C 44.453125 60.148438 44.453125 60.148438 44.167969 60.152344 C 43.65625 60.152344 43.144531 60.152344 42.632812 60.152344 C 42.3125 60.15625 41.992188 60.15625 41.671875 60.15625 C 40.671875 60.15625 39.671875 60.160156 38.671875 60.160156 C 37.515625 60.160156 36.359375 60.164062 35.203125 60.167969 C 34.3125 60.171875 33.417969 60.171875 32.523438 60.171875 C 31.992188 60.171875 31.457031 60.171875 30.925781 60.175781 C 30.328125 60.179688 29.734375 60.175781 29.140625 60.175781 C 28.960938 60.179688 28.785156 60.179688 28.601562 60.179688 C 28.359375 60.179688 28.359375 60.179688 28.113281 60.179688 C 27.902344 60.179688 27.902344 60.179688 27.6875 60.179688 C 27.25 60.113281 27.054688 59.996094 26.738281 59.691406 C 26.59375 59.257812 26.59375 59.257812 26.59375 57.8125 Z M 26.59375 57.8125 "/>
<path style=" stroke:none;fill-rule:nonzero;fill:rgb(0%,0%,0%);fill-opacity:1;" d="M 10.40625 30.0625 C 11.167969 30.0625 11.933594 30.0625 12.71875 30.0625 C 12.683594 30.308594 12.652344 30.550781 12.617188 30.804688 C 12.476562 32.472656 12.507812 33.847656 13.59375 35.160156 C 14.464844 36.15625 15.445312 37.050781 16.425781 37.9375 C 16.890625 38.367188 17.347656 38.804688 17.808594 39.246094 C 18.703125 40.097656 19.609375 40.9375 20.523438 41.769531 C 20.277344 42.292969 19.984375 42.628906 19.566406 43.035156 C 19.449219 43.148438 19.328125 43.265625 19.207031 43.382812 C 19.117188 43.472656 19.027344 43.558594 18.933594 43.648438 C 18.371094 43.417969 17.996094 43.039062 17.574219 42.613281 C 17.5 42.539062 17.421875 42.464844 17.34375 42.386719 C 17.09375 42.136719 16.847656 41.886719 16.597656 41.632812 C 16.421875 41.460938 16.25 41.285156 16.074219 41.113281 C 15.710938 40.75 15.347656 40.382812 14.984375 40.019531 C 14.519531 39.550781 14.050781 39.082031 13.585938 38.617188 C 13.226562 38.257812 12.867188 37.898438 12.511719 37.539062 C 12.339844 37.367188 12.164062 37.195312 11.992188 37.023438 C 11.753906 36.78125 11.515625 36.539062 11.273438 36.300781 C 11.167969 36.191406 11.167969 36.191406 11.058594 36.082031 C 10.492188 35.511719 10.390625 35.25 10.390625 34.441406 C 10.390625 34.328125 10.390625 34.214844 10.390625 34.097656 C 10.390625 33.984375 10.390625 33.867188 10.394531 33.75 C 10.394531 33.382812 10.394531 33.015625 10.398438 32.644531 C 10.398438 32.398438 10.398438 32.148438 10.398438 31.898438 C 10.402344 31.285156 10.402344 30.675781 10.40625 30.0625 Z M 10.40625 30.0625 "/>
<path style=" stroke:none;fill-rule:nonzero;fill:rgb(0.784314%,0.784314%,0.784314%);fill-opacity:1;" d="M 38.480469 46.539062 C 39.421875 47.066406 40.136719 47.816406 40.46875 48.851562 C 40.601562 49.867188 40.539062 50.722656 39.980469 51.59375 C 39.324219 52.421875 38.648438 53.019531 37.578125 53.1875 C 36.585938 53.289062 35.789062 53.21875 34.976562 52.609375 C 34.019531 51.714844 33.539062 50.984375 33.476562 49.664062 C 33.503906 48.691406 33.742188 48.082031 34.410156 47.378906 C 35.621094 46.253906 36.90625 45.824219 38.480469 46.539062 Z M 38.480469 46.539062 "/>
<path style=" stroke:none;fill-rule:nonzero;fill:rgb(0%,0%,0%);fill-opacity:1;" d="M 70.089844 35.597656 C 70.390625 35.863281 70.683594 36.132812 70.964844 36.421875 C 70.742188 36.953125 70.417969 37.289062 70.007812 37.6875 C 69.890625 37.800781 69.769531 37.917969 69.648438 38.035156 C 69.558594 38.125 69.46875 38.210938 69.375 38.300781 C 69.292969 38.246094 69.214844 38.191406 69.132812 38.136719 C 68.898438 37.980469 68.667969 37.828125 68.433594 37.671875 C 68.21875 37.53125 68.007812 37.386719 67.796875 37.234375 C 65.976562 35.984375 63.726562 35.859375 61.601562 36.226562 C 60.5 36.53125 59.605469 37.070312 58.679688 37.722656 C 58.394531 37.914062 58.105469 38.105469 57.8125 38.300781 C 57.289062 37.777344 56.761719 37.25 56.222656 36.710938 C 57.027344 35.101562 58.945312 34.433594 60.527344 33.804688 C 63.703125 32.804688 67.492188 33.570312 70.089844 35.597656 Z M 70.089844 35.597656 "/>
<path style=" stroke:none;fill-rule:nonzero;fill:rgb(0%,0%,0%);fill-opacity:1;" d="M 58.96875 20.8125 C 59.730469 20.8125 60.496094 20.8125 61.28125 20.8125 C 61.296875 21.707031 61.304688 22.601562 61.3125 23.496094 C 61.316406 23.800781 61.320312 24.105469 61.324219 24.410156 C 61.332031 24.847656 61.335938 25.285156 61.335938 25.722656 C 61.339844 25.859375 61.34375 25.996094 61.347656 26.136719 C 61.347656 26.328125 61.347656 26.328125 61.347656 26.523438 C 61.347656 26.632812 61.347656 26.746094 61.351562 26.859375 C 61.25 27.308594 61.070312 27.476562 60.703125 27.75 C 60.304688 27.820312 60.304688 27.820312 59.839844 27.816406 C 59.667969 27.816406 59.496094 27.816406 59.316406 27.816406 C 59.128906 27.8125 58.941406 27.808594 58.75 27.804688 C 58.554688 27.804688 58.363281 27.804688 58.167969 27.804688 C 57.660156 27.800781 57.152344 27.796875 56.644531 27.789062 C 56.125 27.785156 55.605469 27.78125 55.085938 27.777344 C 54.066406 27.773438 53.050781 27.761719 52.03125 27.75 C 52.03125 26.988281 52.03125 26.222656 52.03125 25.4375 C 54.320312 25.4375 56.609375 25.4375 58.96875 25.4375 C 58.96875 23.910156 58.96875 22.386719 58.96875 20.8125 Z M 58.96875 20.8125 "/>
<path style=" stroke:none;fill-rule:nonzero;fill:rgb(0%,0%,0%);fill-opacity:1;" d="M 62.582031 47.695312 C 63.105469 47.941406 63.441406 48.234375 63.847656 48.652344 C 63.960938 48.769531 64.078125 48.890625 64.195312 49.011719 C 64.285156 49.101562 64.371094 49.191406 64.460938 49.285156 C 64.234375 49.839844 63.878906 50.191406 63.457031 50.609375 C 63.390625 50.679688 63.320312 50.75 63.246094 50.820312 C 63.101562 50.964844 62.953125 51.113281 62.808594 51.257812 C 62.582031 51.480469 62.359375 51.703125 62.132812 51.929688 C 60.875 53.179688 60.875 53.179688 60.296875 53.203125 C 60.128906 53.203125 59.960938 53.203125 59.789062 53.203125 C 59.609375 53.199219 59.425781 53.199219 59.238281 53.199219 C 59.046875 53.199219 58.859375 53.199219 58.660156 53.195312 C 58.46875 53.195312 58.273438 53.195312 58.082031 53.195312 C 57.605469 53.191406 57.132812 53.191406 56.65625 53.1875 C 56.65625 52.425781 56.65625 51.660156 56.65625 50.875 C 56.828125 50.898438 57.003906 50.925781 57.183594 50.949219 C 58.214844 51.03125 59.105469 51.039062 59.980469 50.425781 C 60.929688 49.59375 61.769531 48.660156 62.582031 47.695312 Z M 62.582031 47.695312 "/>
<path style=" stroke:none;fill-rule:nonzero;fill:rgb(23.137255%,58.823532%,86.274511%);fill-opacity:1;" d="M 22.835938 48.707031 C 23.109375 49.117188 23.179688 49.296875 23.261719 49.761719 C 23.285156 49.886719 23.308594 50.015625 23.332031 50.144531 C 23.355469 50.28125 23.378906 50.417969 23.402344 50.558594 C 23.4375 50.773438 23.4375 50.773438 23.476562 50.992188 C 23.558594 51.453125 23.632812 51.917969 23.710938 52.382812 C 23.738281 52.539062 23.765625 52.695312 23.792969 52.859375 C 24.199219 55.292969 24.460938 57.652344 24.425781 60.125 C 23.613281 60.125 22.804688 60.125 21.96875 60.125 C 21.957031 58.925781 21.945312 57.730469 21.9375 56.53125 C 21.9375 55.976562 21.933594 55.421875 21.925781 54.863281 C 21.917969 54.328125 21.914062 53.789062 21.914062 53.25 C 21.914062 53.046875 21.910156 52.84375 21.90625 52.636719 C 21.886719 51.183594 22.011719 49.941406 22.835938 48.707031 Z M 22.835938 48.707031 "/>
<path style=" stroke:none;fill-rule:nonzero;fill:rgb(23.137255%,58.823532%,86.666667%);fill-opacity:1;" d="M 51.019531 48.707031 C 52.152344 49.914062 52.089844 51.34375 52.074219 52.914062 C 52.074219 53.121094 52.070312 53.332031 52.070312 53.539062 C 52.070312 54.085938 52.066406 54.628906 52.0625 55.175781 C 52.054688 55.734375 52.054688 56.289062 52.050781 56.847656 C 52.046875 57.941406 52.039062 59.03125 52.03125 60.125 C 51.21875 60.125 50.410156 60.125 49.574219 60.125 C 49.535156 57.488281 49.851562 54.976562 50.296875 52.382812 C 50.324219 52.226562 50.351562 52.070312 50.378906 51.90625 C 50.5 51.191406 50.625 50.476562 50.753906 49.761719 C 50.773438 49.652344 50.792969 49.542969 50.816406 49.429688 C 50.875 49.140625 50.875 49.140625 51.019531 48.707031 Z M 51.019531 48.707031 "/>
<path style=" stroke:none;fill-rule:nonzero;fill:rgb(0%,0%,0%);fill-opacity:1;" d="M 66.484375 38.734375 C 66.941406 39.046875 67.371094 39.378906 67.785156 39.746094 C 66.65625 41.09375 66.65625 41.09375 66.195312 41.480469 C 65.769531 41.425781 65.472656 41.257812 65.109375 41.039062 C 64.339844 40.644531 63.574219 40.640625 62.726562 40.757812 C 62.398438 40.878906 62.117188 41.011719 61.820312 41.195312 C 61.324219 41.476562 61.324219 41.476562 60.992188 41.480469 C 60.683594 41.226562 60.429688 40.984375 60.160156 40.695312 C 60.050781 40.578125 60.050781 40.578125 59.9375 40.460938 C 59.757812 40.273438 59.582031 40.082031 59.402344 39.890625 C 59.808594 39.472656 60.191406 39.089844 60.683594 38.78125 C 60.773438 38.722656 60.863281 38.664062 60.953125 38.605469 C 62.5625 37.8125 64.921875 37.859375 66.484375 38.734375 Z M 66.484375 38.734375 "/>
<path style=" stroke:none;fill-rule:nonzero;fill:rgb(0%,0%,0%);fill-opacity:1;" d="M 8.09375 16.1875 C 10.382812 16.1875 12.671875 16.1875 15.03125 16.1875 C 15.03125 16.949219 15.03125 17.714844 15.03125 18.5 C 12.742188 18.5 10.453125 18.5 8.09375 18.5 C 8.09375 17.738281 8.09375 16.972656 8.09375 16.1875 Z M 8.09375 16.1875 "/>
<path style=" stroke:none;fill-rule:nonzero;fill:rgb(0%,0%,0%);fill-opacity:1;" d="M 8.09375 11.5625 C 10.382812 11.5625 12.671875 11.5625 15.03125 11.5625 C 15.03125 12.324219 15.03125 13.089844 15.03125 13.875 C 12.742188 13.875 10.453125 13.875 8.09375 13.875 C 8.09375 13.113281 8.09375 12.347656 8.09375 11.5625 Z M 8.09375 11.5625 "/>
<path style=" stroke:none;fill-rule:nonzero;fill:rgb(0%,0%,0%);fill-opacity:1;" d="M 9.25 6.9375 C 10.777344 6.9375 12.300781 6.9375 13.875 6.9375 C 13.875 7.699219 13.875 8.464844 13.875 9.25 C 12.347656 9.25 10.824219 9.25 9.25 9.25 C 9.25 8.488281 9.25 7.722656 9.25 6.9375 Z M 9.25 6.9375 "/>
<path style=" stroke:none;fill-rule:nonzero;fill:rgb(99.607843%,71.372551%,34.117648%);fill-opacity:1;" d="M 34.6875 40.179688 C 34.800781 40.203125 34.917969 40.226562 35.035156 40.25 C 35.667969 40.339844 36.28125 40.34375 36.917969 40.34375 C 37.039062 40.34375 37.15625 40.34375 37.277344 40.34375 C 37.972656 40.34375 38.628906 40.296875 39.3125 40.179688 C 39.3125 40.65625 39.3125 41.132812 39.3125 41.625 C 37.785156 41.625 36.261719 41.625 34.6875 41.625 C 34.6875 41.148438 34.6875 40.671875 34.6875 40.179688 Z M 34.6875 40.179688 "/>
<path style=" stroke:none;fill-rule:nonzero;fill:rgb(0%,0%,0%);fill-opacity:1;" d="M 62.4375 42.78125 C 63.199219 42.78125 63.964844 42.78125 64.75 42.78125 C 64.75 43.542969 64.75 44.308594 64.75 45.09375 C 63.988281 45.09375 63.222656 45.09375 62.4375 45.09375 C 62.4375 44.332031 62.4375 43.566406 62.4375 42.78125 Z M 62.4375 42.78125 "/>
<path style=" stroke:none;fill-rule:nonzero;fill:rgb(0%,0%,0%);fill-opacity:1;" d="M 39.3125 28.90625 C 40.074219 28.90625 40.839844 28.90625 41.625 28.90625 C 41.625 29.667969 41.625 30.433594 41.625 31.21875 C 40.863281 31.21875 40.097656 31.21875 39.3125 31.21875 C 39.3125 30.457031 39.3125 29.691406 39.3125 28.90625 Z M 39.3125 28.90625 "/>
<path style=" stroke:none;fill-rule:nonzero;fill:rgb(0%,0%,0%);fill-opacity:1;" d="M 32.375 28.90625 C 33.136719 28.90625 33.902344 28.90625 34.6875 28.90625 C 34.6875 29.667969 34.6875 30.433594 34.6875 31.21875 C 33.925781 31.21875 33.160156 31.21875 32.375 31.21875 C 32.375 30.457031 32.375 29.691406 32.375 28.90625 Z M 32.375 28.90625 "/>
<path style=" stroke:none;fill-rule:nonzero;fill:rgb(0%,0%,0%);fill-opacity:1;" d="M 10.40625 20.8125 C 11.167969 20.8125 11.933594 20.8125 12.71875 20.8125 C 12.71875 21.574219 12.71875 22.339844 12.71875 23.125 C 11.957031 23.125 11.191406 23.125 10.40625 23.125 C 10.40625 22.363281 10.40625 21.597656 10.40625 20.8125 Z M 10.40625 20.8125 "/>
<path style=" stroke:none;fill-rule:nonzero;fill:rgb(85.882354%,86.274511%,86.666667%);fill-opacity:1;" d="M 37 48.472656 C 37.589844 48.59375 37.800781 48.804688 38.15625 49.285156 C 38.246094 49.71875 38.246094 49.71875 38.15625 50.152344 C 37.800781 50.632812 37.589844 50.84375 37 50.964844 C 36.410156 50.84375 36.199219 50.632812 35.84375 50.152344 C 35.753906 49.71875 35.753906 49.71875 35.84375 49.285156 C 36.199219 48.804688 36.410156 48.59375 37 48.472656 Z M 37 48.472656 "/>
<path style=" stroke:none;fill-rule:nonzero;fill:rgb(95.294118%,67.843139%,31.764707%);fill-opacity:1;" d="M 27.75 28.90625 C 27.75 29.667969 27.75 30.433594 27.75 31.21875 C 27.027344 31.074219 27.027344 31.074219 26.765625 30.832031 C 26.535156 30.382812 26.511719 30.125 26.59375 29.628906 C 27.175781 28.90625 27.175781 28.90625 27.75 28.90625 Z M 27.75 28.90625 "/>
<path style=" stroke:none;fill-rule:nonzero;fill:rgb(95.294118%,68.235296%,31.764707%);fill-opacity:1;" d="M 46.25 28.90625 C 46.972656 29.050781 46.972656 29.050781 47.234375 29.292969 C 47.457031 29.730469 47.46875 30.011719 47.40625 30.496094 C 47.234375 30.832031 47.234375 30.832031 46.972656 31.074219 C 46.734375 31.121094 46.496094 31.167969 46.25 31.21875 C 46.25 30.457031 46.25 29.691406 46.25 28.90625 Z M 46.25 28.90625 "/>
</g>
</svg>
