<?xml version="1.0" encoding="UTF-8"?>
<svg xmlns="http://www.w3.org/2000/svg" xmlns:xlink="http://www.w3.org/1999/xlink" width="60px" height="85px" viewBox="0 0 60 84" version="1.1">
<g id="surface1">
<path style=" stroke:none;fill-rule:nonzero;fill:rgb(1.568628%,55.686277%,27.450982%);fill-opacity:1;" d="M 54.246094 33.300781 C 54.246094 20.722656 43.894531 10.527344 31.125 10.527344 C 18.355469 10.527344 8.003906 20.722656 8.003906 33.300781 C 8.003906 45.878906 18.355469 56.074219 31.125 56.074219 C 43.894531 56.074219 54.246094 45.878906 54.246094 33.300781 Z M 54.246094 33.300781 "/>
<path style=" stroke:none;fill-rule:nonzero;fill:rgb(32.549021%,72.156864%,28.235295%);fill-opacity:1;" d="M 52.761719 33.300781 C 52.761719 21.707031 43.074219 12.3125 31.125 12.3125 C 19.171875 12.3125 9.484375 21.707031 9.484375 33.300781 C 9.484375 44.890625 19.171875 54.289062 31.125 54.289062 C 43.074219 54.289062 52.761719 44.890625 52.761719 33.300781 Z M 52.761719 33.300781 "/>
<path style=" stroke:none;fill-rule:nonzero;fill:rgb(0%,0%,0%);fill-opacity:1;" d="M 15.308594 47.398438 C 15.308594 47.398438 25.027344 37.128906 27.414062 28.78125 C 29.804688 20.4375 29.773438 12.3125 29.773438 12.3125 C 29.773438 12.3125 33.339844 22.730469 30.550781 31.746094 C 27.96875 40.039062 23.203125 44.257812 23.203125 44.257812 C 23.203125 44.257812 28.5625 44.675781 32.515625 44.230469 C 40.09375 43.371094 47.683594 37.050781 47.683594 37.050781 C 47.683594 37.050781 41.414062 46.550781 31.367188 47.777344 C 23.261719 48.765625 15.308594 47.398438 15.308594 47.398438 Z M 15.308594 47.398438 "/>
<path style=" stroke:none;fill-rule:nonzero;fill:rgb(0%,0%,0%);fill-opacity:1;" d="M 44.699219 30.539062 L 46.082031 32.351562 C 46.082031 32.351562 41.714844 39.332031 42.25 39.800781 C 43.136719 40.589844 46.28125 38.59375 46.6875 37.898438 C 47.160156 37.078125 48.832031 32.214844 48.832031 32.214844 L 50.171875 34.027344 C 50.171875 34.027344 46.625 40.679688 47.351562 40.828125 C 48.078125 40.976562 50.566406 37.429688 50.566406 37.429688 C 50.566406 37.429688 48.15625 42.824219 46.101562 42.085938 C 44.667969 41.578125 47.089844 37.539062 47.089844 37.539062 L 42.3125 41.65625 C 40.820312 42.382812 39.570312 40.929688 40.636719 38.585938 Z M 44.699219 30.539062 "/>
<path style=" stroke:none;fill-rule:nonzero;fill:rgb(100%,100%,100%);fill-opacity:1;" d="M 15.996094 46.660156 C 15.996094 46.660156 24.390625 36.652344 26.71875 28.632812 C 29.046875 20.617188 29.753906 12.3125 29.753906 12.3125 C 29.753906 12.3125 32.292969 23.519531 29.761719 31.476562 C 27.242188 39.441406 22.980469 43.648438 22.980469 43.648438 C 22.980469 43.648438 28.65625 44.078125 32.496094 43.648438 C 39.863281 42.824219 47.25 36.75 47.25 36.75 C 47.25 36.75 41.152344 45.875 31.386719 47.050781 C 23.492188 48.007812 15.996094 46.660156 15.996094 46.660156 Z M 15.996094 46.660156 "/>
<path style=" stroke:none;fill-rule:nonzero;fill:rgb(100%,100%,100%);fill-opacity:1;" d="M 44.699219 30.539062 L 45.6875 32.253906 C 45.6875 32.253906 41.382812 39.203125 41.898438 39.652344 C 42.765625 40.410156 45.878906 38.246094 46.273438 37.566406 C 46.734375 36.78125 48.832031 32.214844 48.832031 32.214844 L 49.667969 33.867188 C 49.667969 33.867188 46.210938 40.25 46.925781 40.398438 C 47.632812 40.539062 50.578125 37.4375 50.578125 37.4375 C 50.578125 37.4375 47.300781 42.164062 45.71875 41.605469 C 44.328125 41.117188 46.675781 37.238281 46.675781 37.238281 L 42.027344 41.1875 C 40.578125 41.886719 39.359375 40.488281 40.394531 38.246094 Z M 44.699219 30.539062 "/>
<path style=" stroke:none;fill-rule:nonzero;fill:rgb(100%,100%,100%);fill-opacity:1;" d="M 26.335938 12.820312 C 26.042969 12.847656 25.75 12.867188 25.460938 12.917969 C 19.191406 13.996094 14.179688 18.09375 12.207031 23.160156 C 14.746094 18.214844 19.945312 14.207031 26.335938 12.820312 Z M 26.335938 12.820312 "/>
<path style=" stroke:none;fill-rule:nonzero;fill:rgb(100%,100%,100%);fill-opacity:1;" d="M 51.988281 27.835938 C 51.945312 27.558594 51.898438 27.289062 51.847656 27.007812 C 50.695312 21.074219 46.566406 16.527344 41.535156 14.941406 C 46.34375 17.117188 50.382812 21.84375 51.988281 27.835938 Z M 51.988281 27.835938 "/>
<path style=" stroke:none;fill-rule:nonzero;fill:rgb(100%,100%,100%);fill-opacity:1;" d="M 17.144531 49.34375 C 17.347656 49.542969 17.539062 49.753906 17.757812 49.941406 C 22.203125 53.921875 28.210938 55.328125 33.25 54.210938 C 28.078125 54.839844 22.003906 53.242188 17.144531 49.34375 Z M 17.144531 49.34375 "/>
</g>
</svg>
