<?xml version="1.0" encoding="UTF-8"?>
<svg xmlns="http://www.w3.org/2000/svg" xmlns:xlink="http://www.w3.org/1999/xlink" width="24px" height="24px" viewBox="0 0 24 24" version="1.1">
<g id="surface1">
<path style=" stroke:none;fill-rule:nonzero;fill:rgb(0%,86.274511%,49.803922%);fill-opacity:1;" d="M 12.890625 0.1875 C 13.105469 0.355469 13.308594 0.535156 13.507812 0.71875 C 15.261719 2.304688 17.390625 2.964844 19.703125 3.199219 C 20.488281 3.277344 21.191406 3.546875 21.703125 4.171875 C 22.265625 4.976562 22.28125 5.804688 22.277344 6.75 C 22.277344 6.847656 22.277344 6.949219 22.277344 7.050781 C 22.277344 7.257812 22.277344 7.46875 22.277344 7.679688 C 22.277344 7.941406 22.277344 8.207031 22.277344 8.472656 C 22.28125 10.589844 22.28125 10.589844 22.171875 11.625 C 22.167969 11.675781 22.160156 11.726562 22.15625 11.777344 C 21.871094 14.527344 21.101562 17.210938 19.359375 19.40625 C 19.324219 19.453125 19.289062 19.5 19.25 19.546875 C 18.664062 20.277344 18 20.953125 17.25 21.515625 C 17.222656 21.535156 17.195312 21.558594 17.164062 21.578125 C 16.375 22.183594 15.515625 22.6875 14.617188 23.113281 C 14.53125 23.15625 14.441406 23.199219 14.351562 23.246094 C 12.359375 24.234375 12.359375 24.234375 11.339844 23.914062 C 9.707031 23.359375 8.15625 22.527344 6.796875 21.46875 C 6.753906 21.4375 6.714844 21.40625 6.671875 21.371094 C 3.871094 19.136719 2.476562 15.910156 2.007812 12.417969 C 2.003906 12.363281 1.996094 12.308594 1.988281 12.253906 C 1.960938 12.058594 1.941406 11.867188 1.921875 11.671875 C 1.917969 11.632812 1.914062 11.589844 1.910156 11.546875 C 1.804688 10.480469 1.8125 9.40625 1.816406 8.332031 C 1.816406 8.070312 1.816406 7.808594 1.816406 7.546875 C 1.816406 7.34375 1.816406 7.140625 1.816406 6.933594 C 1.816406 6.839844 1.816406 6.742188 1.816406 6.644531 C 1.8125 5.585938 1.894531 4.726562 2.648438 3.914062 C 3.269531 3.308594 4.019531 3.21875 4.84375 3.148438 C 6.707031 2.980469 8.488281 2.359375 9.984375 1.21875 C 10.027344 1.1875 10.066406 1.15625 10.109375 1.125 C 10.300781 0.972656 10.484375 0.816406 10.664062 0.648438 C 11.257812 0.0898438 12.117188 -0.320312 12.890625 0.1875 Z M 12.890625 0.1875 "/>
<path style=" stroke:none;fill-rule:nonzero;fill:rgb(0%,65.882355%,38.039216%);fill-opacity:1;" d="M 12.046875 0 C 12.71875 0 13.03125 0.285156 13.507812 0.71875 C 15.261719 2.304688 17.390625 2.964844 19.703125 3.199219 C 20.488281 3.277344 21.191406 3.546875 21.703125 4.171875 C 22.265625 4.976562 22.28125 5.804688 22.277344 6.75 C 22.277344 6.847656 22.277344 6.949219 22.277344 7.050781 C 22.277344 7.257812 22.277344 7.46875 22.277344 7.679688 C 22.277344 7.941406 22.277344 8.207031 22.277344 8.472656 C 22.28125 10.589844 22.28125 10.589844 22.171875 11.625 C 22.167969 11.675781 22.160156 11.726562 22.15625 11.777344 C 21.871094 14.527344 21.101562 17.210938 19.359375 19.40625 C 19.324219 19.453125 19.289062 19.5 19.25 19.546875 C 18.664062 20.277344 18 20.953125 17.25 21.515625 C 17.222656 21.535156 17.195312 21.558594 17.164062 21.578125 C 16.375 22.183594 15.515625 22.6875 14.617188 23.113281 C 14.53125 23.15625 14.441406 23.199219 14.351562 23.246094 C 13.9375 23.453125 13.511719 23.625 13.078125 23.789062 C 12.996094 23.820312 12.996094 23.820312 12.914062 23.851562 C 12.835938 23.882812 12.835938 23.882812 12.757812 23.910156 C 12.691406 23.9375 12.691406 23.9375 12.621094 23.964844 C 12.46875 24 12.46875 24 12.046875 24 C 12.046875 22.019531 12.046875 20.039062 12.046875 18 C 12.417969 17.953125 12.789062 17.90625 13.171875 17.859375 C 13.664062 17.738281 14.121094 17.605469 14.578125 17.390625 C 14.644531 17.359375 14.644531 17.359375 14.714844 17.328125 C 16.03125 16.714844 17.089844 15.523438 17.601562 14.171875 C 18.1875 12.535156 18.109375 10.890625 17.382812 9.3125 C 16.746094 7.984375 15.492188 6.890625 14.105469 6.398438 C 13.429688 6.171875 12.757812 6.078125 12.046875 6 C 12.046875 4.019531 12.046875 2.039062 12.046875 0 Z M 12.046875 0 "/>
<path style=" stroke:none;fill-rule:nonzero;fill:rgb(87.843138%,91.764706%,93.725491%);fill-opacity:1;" d="M 14.671875 6.609375 C 14.714844 6.628906 14.753906 6.648438 14.800781 6.664062 C 15.738281 7.09375 16.554688 7.914062 17.109375 8.765625 C 17.132812 8.800781 17.15625 8.832031 17.179688 8.867188 C 17.96875 10.09375 18.238281 11.671875 17.953125 13.097656 C 17.808594 13.773438 17.589844 14.398438 17.25 15 C 17.222656 15.046875 17.199219 15.089844 17.171875 15.136719 C 16.945312 15.519531 16.65625 15.84375 16.359375 16.171875 C 16.328125 16.207031 16.296875 16.242188 16.265625 16.277344 C 15.847656 16.722656 15.308594 17.078125 14.765625 17.34375 C 14.71875 17.367188 14.667969 17.390625 14.621094 17.417969 C 13.863281 17.78125 13.074219 17.980469 12.234375 17.96875 C 12.136719 17.96875 12.042969 17.96875 11.945312 17.96875 C 10.542969 17.964844 9.207031 17.476562 8.15625 16.546875 C 8.113281 16.511719 8.070312 16.476562 8.027344 16.4375 C 6.945312 15.503906 6.207031 14.082031 6.09375 12.65625 C 6.085938 12.441406 6.085938 12.230469 6.085938 12.015625 C 6.085938 11.957031 6.082031 11.902344 6.082031 11.84375 C 6.082031 10.464844 6.589844 9.144531 7.5 8.109375 C 7.535156 8.070312 7.566406 8.03125 7.601562 7.988281 C 9.316406 6 12.339844 5.460938 14.671875 6.609375 Z M 14.671875 6.609375 "/>
<path style=" stroke:none;fill-rule:nonzero;fill:rgb(99.607843%,99.607843%,99.607843%);fill-opacity:1;" d="M 11.734375 6.046875 C 11.820312 6.046875 11.820312 6.046875 11.910156 6.046875 C 11.976562 6.046875 11.976562 6.046875 12.046875 6.046875 C 12.070312 6.792969 12.085938 7.539062 12.097656 8.289062 C 12.101562 8.636719 12.109375 8.980469 12.121094 9.328125 C 12.132812 9.632812 12.136719 9.933594 12.140625 10.238281 C 12.140625 10.398438 12.144531 10.558594 12.152344 10.71875 C 12.175781 11.316406 12.179688 11.820312 11.761719 12.285156 C 11.554688 12.503906 11.328125 12.738281 11.0625 12.890625 C 10.890625 12.875 10.816406 12.800781 10.699219 12.679688 C 10.667969 12.644531 10.636719 12.613281 10.601562 12.578125 C 10.535156 12.507812 10.46875 12.4375 10.402344 12.367188 C 10.371094 12.332031 10.339844 12.300781 10.304688 12.265625 C 10.277344 12.234375 10.246094 12.203125 10.21875 12.171875 C 10.066406 12.046875 9.929688 12.003906 9.734375 11.980469 C 9.511719 12.003906 9.355469 12.085938 9.1875 12.234375 C 9.101562 12.367188 9.078125 12.472656 9.078125 12.628906 C 9.078125 12.660156 9.078125 12.695312 9.078125 12.730469 C 9.125 13.039062 9.324219 13.238281 9.539062 13.445312 C 9.570312 13.476562 9.597656 13.503906 9.628906 13.535156 C 9.691406 13.597656 9.753906 13.660156 9.816406 13.722656 C 9.910156 13.816406 10.007812 13.910156 10.101562 14.007812 C 10.160156 14.066406 10.222656 14.128906 10.28125 14.1875 C 10.3125 14.214844 10.339844 14.246094 10.367188 14.273438 C 10.394531 14.300781 10.421875 14.328125 10.449219 14.351562 C 10.472656 14.375 10.496094 14.398438 10.519531 14.421875 C 10.691406 14.566406 10.832031 14.589844 11.054688 14.59375 C 11.335938 14.546875 11.519531 14.375 11.707031 14.171875 C 11.789062 14.085938 11.867188 14.003906 11.953125 13.921875 C 11.984375 13.921875 12.015625 13.921875 12.046875 13.921875 C 12.046875 15.253906 12.046875 16.582031 12.046875 17.953125 C 10.585938 17.953125 9.257812 17.519531 8.15625 16.546875 C 8.113281 16.511719 8.070312 16.476562 8.027344 16.4375 C 6.945312 15.503906 6.207031 14.082031 6.09375 12.65625 C 6.085938 12.441406 6.085938 12.230469 6.085938 12.015625 C 6.085938 11.957031 6.082031 11.902344 6.082031 11.84375 C 6.082031 10.464844 6.589844 9.144531 7.5 8.109375 C 7.535156 8.070312 7.566406 8.03125 7.601562 7.988281 C 8.5 6.945312 9.882812 6.191406 11.261719 6.054688 C 11.417969 6.046875 11.574219 6.046875 11.734375 6.046875 Z M 11.734375 6.046875 "/>
<path style=" stroke:none;fill-rule:nonzero;fill:rgb(70.19608%,81.960785%,84.313726%);fill-opacity:1;" d="M 14.4375 9.9375 C 14.6875 10.027344 14.832031 10.167969 14.953125 10.40625 C 14.960938 10.496094 14.960938 10.496094 14.964844 10.605469 C 14.964844 10.640625 14.96875 10.675781 14.96875 10.710938 C 14.925781 11.035156 14.707031 11.234375 14.484375 11.453125 C 14.453125 11.488281 14.421875 11.519531 14.386719 11.554688 C 14.277344 11.664062 14.167969 11.773438 14.058594 11.882812 C 13.984375 11.957031 13.90625 12.035156 13.832031 12.109375 C 13.671875 12.269531 13.511719 12.429688 13.351562 12.585938 C 13.148438 12.792969 12.945312 12.996094 12.742188 13.199219 C 12.585938 13.355469 12.425781 13.511719 12.269531 13.671875 C 12.195312 13.746094 12.121094 13.820312 12.042969 13.894531 C 11.941406 14 11.835938 14.105469 11.730469 14.210938 C 11.699219 14.242188 11.667969 14.273438 11.636719 14.304688 C 11.394531 14.542969 11.226562 14.632812 10.882812 14.648438 C 10.597656 14.585938 10.378906 14.328125 10.179688 14.128906 C 10.132812 14.085938 10.132812 14.085938 10.089844 14.042969 C 10.027344 13.980469 9.964844 13.917969 9.902344 13.855469 C 9.808594 13.761719 9.714844 13.667969 9.617188 13.574219 C 9.558594 13.511719 9.496094 13.453125 9.4375 13.390625 C 9.410156 13.363281 9.378906 13.335938 9.351562 13.308594 C 9.152344 13.105469 9.035156 12.929688 9.03125 12.636719 C 9.035156 12.421875 9.085938 12.300781 9.234375 12.140625 C 9.394531 12.011719 9.527344 11.957031 9.730469 11.933594 C 10.152344 11.988281 10.378906 12.292969 10.652344 12.589844 C 10.699219 12.636719 10.699219 12.636719 10.75 12.6875 C 10.777344 12.71875 10.808594 12.75 10.835938 12.78125 C 10.917969 12.851562 10.917969 12.851562 11.015625 12.839844 C 11.136719 12.785156 11.214844 12.707031 11.3125 12.609375 C 11.347656 12.574219 11.386719 12.535156 11.425781 12.496094 C 11.464844 12.453125 11.503906 12.414062 11.546875 12.371094 C 11.585938 12.332031 11.625 12.292969 11.664062 12.253906 C 11.832031 12.082031 12 11.90625 12.15625 11.726562 C 12.316406 11.542969 12.484375 11.367188 12.65625 11.195312 C 12.6875 11.164062 12.714844 11.132812 12.746094 11.101562 C 12.808594 11.039062 12.871094 10.976562 12.9375 10.914062 C 13.03125 10.816406 13.125 10.71875 13.222656 10.625 C 13.28125 10.5625 13.34375 10.5 13.40625 10.4375 C 13.433594 10.410156 13.460938 10.378906 13.492188 10.351562 C 13.777344 10.066406 14.023438 9.890625 14.4375 9.9375 Z M 14.4375 9.9375 "/>
<path style=" stroke:none;fill-rule:nonzero;fill:rgb(43.529412%,64.313728%,66.274512%);fill-opacity:1;" d="M 14.4375 9.9375 C 14.6875 10.027344 14.832031 10.167969 14.953125 10.40625 C 14.960938 10.496094 14.960938 10.496094 14.964844 10.605469 C 14.964844 10.640625 14.96875 10.675781 14.96875 10.710938 C 14.929688 11 14.75 11.195312 14.546875 11.390625 C 14.507812 11.429688 14.507812 11.429688 14.46875 11.472656 C 14.378906 11.558594 14.292969 11.644531 14.207031 11.730469 C 14.144531 11.792969 14.085938 11.851562 14.023438 11.914062 C 13.898438 12.039062 13.769531 12.167969 13.644531 12.292969 C 13.480469 12.453125 13.316406 12.617188 13.152344 12.777344 C 13.027344 12.902344 12.902344 13.027344 12.777344 13.152344 C 12.71875 13.214844 12.65625 13.273438 12.597656 13.332031 C 12.515625 13.417969 12.429688 13.5 12.347656 13.582031 C 12.320312 13.609375 12.296875 13.632812 12.269531 13.660156 C 12.097656 13.828125 12.097656 13.828125 12.046875 13.828125 C 11.769531 12.1875 11.769531 12.1875 12.207031 11.554688 C 12.671875 10.96875 13.613281 9.847656 14.4375 9.9375 Z M 14.4375 9.9375 "/>
</g>
</svg>
