<?xml version="1.0" encoding="UTF-8"?>
<svg version="1.1" xmlns="http://www.w3.org/2000/svg" width="53" height="53">
<path d="M0 0 C1.98 0 3.96 0 6 0 C6 0.66 6 1.32 6 2 C7.05960938 1.97679687 8.11921875 1.95359375 9.2109375 1.9296875 C10.5989513 1.91093056 11.9869727 1.89273028 13.375 1.875 C14.42300781 1.84986328 14.42300781 1.84986328 15.4921875 1.82421875 C17.32897486 1.80655733 19.16601963 1.89696739 21 2 C23.49057251 4.49057251 23.2565813 5.28472659 23.265625 8.71875 C23.26949219 10.11673828 23.26949219 10.11673828 23.2734375 11.54296875 C23.26570313 12.51878906 23.25796875 13.49460937 23.25 14.5 C23.26160156 15.96373047 23.26160156 15.96373047 23.2734375 17.45703125 C23.27085938 18.38902344 23.26828125 19.32101563 23.265625 20.28125 C23.26336914 21.13783203 23.26111328 21.99441406 23.25878906 22.87695312 C23 25 23 25 21 27 C18.29864677 27.19973733 15.70202789 27.27981573 13 27.265625 C12.20851563 27.26753845 11.41703125 27.2694519 10.6015625 27.27142334 C8.9270801 27.27278518 7.25258715 27.26908882 5.578125 27.26074219 C3.01017619 27.2500424 0.44292697 27.26063725 -2.125 27.2734375 C-3.75000155 27.2721159 -5.37500266 27.26955351 -7 27.265625 C-7.77085938 27.26967346 -8.54171875 27.27372192 -9.3359375 27.27789307 C-14.77007868 27.22992132 -14.77007868 27.22992132 -17 25 C-17.25878906 22.87695312 -17.25878906 22.87695312 -17.265625 20.28125 C-17.26820312 19.34925781 -17.27078125 18.41726562 -17.2734375 17.45703125 C-17.26570313 16.48121094 -17.25796875 15.50539063 -17.25 14.5 C-17.25773437 13.52417969 -17.26546875 12.54835938 -17.2734375 11.54296875 C-17.27085938 10.61097656 -17.26828125 9.67898438 -17.265625 8.71875 C-17.26336914 7.86216797 -17.26111328 7.00558594 -17.25878906 6.12304688 C-17 4 -17 4 -15 2 C-12.41935871 1.85502015 -9.95056116 1.81322455 -7.375 1.875 C-6.66859375 1.88402344 -5.9621875 1.89304687 -5.234375 1.90234375 C-3.48943902 1.92592397 -1.74467705 1.96179539 0 2 C0 1.34 0 0.68 0 0 Z " fill="#F3BB3A" transform="translate(24,3)"/>
<path d="M0 0 C0.46484375 2.14453125 0.46484375 2.14453125 0 5 C-2.20242369 7.29448897 -4.78672242 8.94947902 -7.4375 10.6875 C-8.46907227 11.41549805 -8.46907227 11.41549805 -9.52148438 12.15820312 C-16.77708238 17.05151341 -23.36955487 18.77208434 -32.0625 17.125 C-33.18785156 16.92132813 -34.31320313 16.71765625 -35.47265625 16.5078125 C-36.30667969 16.34023438 -37.14070313 16.17265625 -38 16 C-38 16.66 -38 17.32 -38 18 C-40.31 18 -42.62 18 -45 18 C-45 13.05 -45 8.1 -45 3 C-43.618125 3.04125 -42.23625 3.0825 -40.8125 3.125 C-37.87703044 3.14323273 -36.25381282 3.11714438 -33.5625 1.875 C-29.36018317 0.44006255 -25.13211505 1.56426511 -21 3 C-19.1953125 4.58203125 -19.1953125 4.58203125 -18 6 C-16.95199219 5.48308594 -15.90398438 4.96617188 -14.82421875 4.43359375 C-13.44556217 3.767712 -12.06664207 3.10237565 -10.6875 2.4375 C-9.99720703 2.09525391 -9.30691406 1.75300781 -8.59570312 1.40039062 C-3.33984375 -1.11328125 -3.33984375 -1.11328125 0 0 Z " fill="#EFB16C" transform="translate(49,32)"/>
<path d="M0 0 C0.48474869 4.94443665 0.73685155 7.97659507 -2.25 12.125 C-5 14 -5 14 -7.0625 14.0625 C-9.77151778 12.57690961 -11.19885141 11.57306941 -13 9 C-13.33429898 5.97041545 -13.2334377 3.03469016 -13 0 C-8.38926889 -1.29676812 -4.66159911 -0.71109139 0 0 Z " fill="#6291A1" transform="translate(25,11)"/>
<path d="M0 0 C2.31 0 4.62 0 7 0 C7 4.95 7 9.9 7 15 C4.69 15 2.38 15 0 15 C0 10.05 0 5.1 0 0 Z " fill="#1ECEB8" transform="translate(4,35)"/>
<path d="M0 0 C2.97 0.495 2.97 0.495 6 1 C5.67 2.65 5.34 4.3 5 6 C3.125 6.625 3.125 6.625 1 7 C0.34 6.34 -0.32 5.68 -1 5 C-0.625 2.375 -0.625 2.375 0 0 Z " fill="#20C8B7" transform="translate(16,18)"/>
<path d="M0 0 C1.98 0 3.96 0 6 0 C5.67 2.31 5.34 4.62 5 7 C3.68 6.67 2.36 6.34 1 6 C0.67 4.02 0.34 2.04 0 0 Z " fill="#23CEB4" transform="translate(24,3)"/>
</svg>
