<?xml version="1.0" encoding="UTF-8"?>
<svg xmlns="http://www.w3.org/2000/svg" xmlns:xlink="http://www.w3.org/1999/xlink" width="104px" height="104px" viewBox="0 0 104 104" version="1.1">
<g id="surface1">
<path style=" stroke:none;fill-rule:nonzero;fill:rgb(0%,0%,0%);fill-opacity:1;" d="M 52.851562 -0.0898438 C 53.210938 -0.0859375 53.210938 -0.0859375 53.578125 -0.0859375 C 55.523438 -0.0507812 57.265625 0.207031 59.109375 0.8125 C 59.339844 0.886719 59.574219 0.964844 59.8125 1.042969 C 64.53125 2.734375 68.242188 5.648438 70.484375 10.15625 C 71.226562 11.878906 71.507812 13.375 71.5 15.234375 C 71.742188 15.226562 71.984375 15.214844 72.234375 15.207031 C 74.433594 15.144531 76.046875 15.167969 77.757812 16.679688 C 79.25 18.355469 79.355469 20.257812 79.34375 22.421875 C 79.351562 22.671875 79.359375 22.921875 79.367188 23.179688 C 79.367188 24.96875 79.019531 26.339844 78 27.828125 C 77.199219 28.609375 76.402344 29.058594 75.359375 29.453125 C 75.355469 29.636719 75.355469 29.636719 75.355469 29.828125 C 75.246094 35.425781 75.246094 35.425781 73.171875 37.589844 C 71.832031 38.761719 70.546875 39.222656 68.789062 39.238281 C 68.539062 39.242188 68.292969 39.25 68.035156 39.253906 C 67.511719 39.261719 66.984375 39.269531 66.460938 39.273438 C 66.210938 39.277344 65.960938 39.285156 65.707031 39.289062 C 65.363281 39.292969 65.363281 39.292969 65.015625 39.296875 C 64.25 39.429688 63.90625 39.65625 63.375 40.21875 C 63.238281 40.664062 63.238281 40.664062 63.277344 41.140625 C 63.28125 41.398438 63.28125 41.398438 63.285156 41.660156 C 63.292969 41.839844 63.304688 42.015625 63.3125 42.199219 C 63.316406 42.378906 63.320312 42.558594 63.324219 42.746094 C 63.335938 43.191406 63.355469 43.632812 63.375 44.078125 C 63.515625 44.125 63.65625 44.171875 63.800781 44.21875 C 72.773438 47.222656 72.773438 47.222656 74.140625 48.75 C 74.167969 49.144531 74.191406 49.539062 74.1875 49.933594 C 74.5625 50.988281 76.054688 51.644531 76.984375 52.203125 C 77.089844 52.132812 77.195312 52.0625 77.300781 51.988281 C 78.035156 51.707031 78.464844 51.792969 79.21875 52 C 79.75 52.359375 80.175781 52.792969 80.617188 53.257812 C 80.738281 53.382812 80.863281 53.511719 80.988281 53.640625 C 83.734375 56.558594 85.398438 60.050781 85.351562 64.085938 C 85.351562 64.378906 85.351562 64.378906 85.351562 64.679688 C 85.347656 65.296875 85.34375 65.917969 85.335938 66.535156 C 85.335938 66.957031 85.335938 67.378906 85.332031 67.804688 C 85.328125 68.832031 85.320312 69.863281 85.3125 70.890625 C 85.480469 70.886719 85.648438 70.886719 85.820312 70.882812 C 87.410156 70.859375 89 70.839844 90.589844 70.828125 C 91.40625 70.820312 92.222656 70.8125 93.039062 70.796875 C 93.828125 70.785156 94.621094 70.777344 95.410156 70.773438 C 95.710938 70.773438 96.007812 70.769531 96.308594 70.761719 C 98.664062 70.710938 100.5625 71.152344 102.363281 72.757812 C 103.742188 74.339844 104.152344 76.074219 104.132812 78.125 C 104.136719 78.460938 104.136719 78.460938 104.140625 78.804688 C 104.148438 79.539062 104.144531 80.273438 104.140625 81.007812 C 104.144531 81.523438 104.144531 82.039062 104.144531 82.550781 C 104.148438 83.628906 104.148438 84.703125 104.144531 85.78125 C 104.140625 87.019531 104.144531 88.257812 104.148438 89.496094 C 104.15625 90.691406 104.15625 91.890625 104.15625 93.089844 C 104.15625 93.597656 104.15625 94.101562 104.160156 94.609375 C 104.1875 99.714844 104.1875 99.714844 102.78125 101.5625 C 102.675781 101.699219 102.574219 101.839844 102.464844 101.980469 C 101.371094 103.238281 99.886719 103.964844 98.230469 104.09375 C 97.117188 104.144531 96.007812 104.136719 94.894531 104.132812 C 94.464844 104.132812 94.039062 104.132812 93.613281 104.136719 C 92.457031 104.140625 91.300781 104.140625 90.148438 104.136719 C 88.9375 104.132812 87.726562 104.136719 86.519531 104.136719 C 84.488281 104.140625 82.457031 104.136719 80.429688 104.132812 C 78.082031 104.125 75.734375 104.128906 73.386719 104.132812 C 71.371094 104.140625 69.351562 104.140625 67.335938 104.136719 C 66.132812 104.136719 64.929688 104.136719 63.722656 104.136719 C 62.59375 104.140625 61.464844 104.140625 60.332031 104.132812 C 59.917969 104.132812 59.5 104.132812 59.085938 104.132812 C 58.519531 104.136719 57.953125 104.132812 57.390625 104.128906 C 57.222656 104.132812 57.058594 104.132812 56.886719 104.136719 C 56.085938 104.121094 55.734375 104.074219 55.140625 103.507812 C 54.84375 102.984375 54.84375 102.984375 54.84375 102.578125 C 53.570312 102.578125 52.296875 102.578125 50.984375 102.578125 C 50.917969 102.847656 50.851562 103.113281 50.78125 103.390625 C 50.511719 103.742188 50.511719 103.742188 50.171875 104 C 49.566406 104.0625 49 104.085938 48.394531 104.082031 C 48.210938 104.082031 48.027344 104.085938 47.839844 104.085938 C 47.21875 104.089844 46.601562 104.089844 45.984375 104.089844 C 45.539062 104.089844 45.097656 104.09375 44.65625 104.09375 C 43.453125 104.101562 42.246094 104.101562 41.042969 104.101562 C 40.039062 104.101562 39.03125 104.105469 38.027344 104.105469 C 35.789062 104.113281 33.550781 104.113281 31.3125 104.113281 C 31.179688 104.113281 31.046875 104.113281 30.90625 104.113281 C 30.773438 104.113281 30.636719 104.113281 30.5 104.113281 C 28.1875 104.113281 25.878906 104.121094 23.566406 104.128906 C 21.46875 104.136719 19.367188 104.140625 17.265625 104.140625 C 16.011719 104.140625 14.757812 104.140625 13.503906 104.148438 C 12.320312 104.152344 11.140625 104.152344 9.960938 104.148438 C 9.527344 104.148438 9.09375 104.148438 8.664062 104.152344 C 5.855469 104.175781 3.808594 104.042969 1.625 102.09375 C 0.628906 101.003906 -0.0195312 99.664062 -0.03125 98.179688 C -0.0351562 97.988281 -0.0351562 97.792969 -0.0390625 97.59375 C -0.0390625 97.382812 -0.0429688 97.167969 -0.0429688 96.949219 C -0.046875 96.613281 -0.046875 96.613281 -0.046875 96.269531 C -0.0546875 95.527344 -0.0585938 94.785156 -0.0625 94.042969 C -0.0625 93.789062 -0.0664062 93.53125 -0.0664062 93.269531 C -0.0703125 92.203125 -0.078125 91.132812 -0.078125 90.0625 C -0.0859375 88.535156 -0.09375 87.011719 -0.105469 85.484375 C -0.117188 84.277344 -0.121094 83.070312 -0.125 81.863281 C -0.125 81.351562 -0.128906 80.84375 -0.136719 80.332031 C -0.191406 75.167969 -0.191406 75.167969 1.21875 73.328125 C 1.324219 73.191406 1.425781 73.050781 1.535156 72.910156 C 2.605469 71.683594 4.085938 70.925781 5.710938 70.800781 C 6.703125 70.761719 7.699219 70.777344 8.691406 70.792969 C 9.058594 70.792969 9.421875 70.792969 9.789062 70.796875 C 10.746094 70.800781 11.699219 70.808594 12.65625 70.820312 C 13.632812 70.832031 14.609375 70.835938 15.589844 70.839844 C 17.5 70.851562 19.414062 70.871094 21.328125 70.890625 C 21.324219 70.625 21.320312 70.359375 21.316406 70.085938 C 21.300781 69.199219 21.289062 68.3125 21.285156 67.425781 C 21.28125 67.03125 21.273438 66.640625 21.265625 66.25 C 21.179688 61.355469 22.238281 57.511719 25.59375 53.828125 C 25.714844 53.691406 25.832031 53.554688 25.957031 53.414062 C 28.234375 50.972656 31.175781 49.238281 34.125 47.734375 C 34.265625 47.664062 34.40625 47.589844 34.550781 47.515625 C 36.300781 46.625 38.097656 45.886719 39.9375 45.207031 C 40.128906 45.136719 40.316406 45.070312 40.507812 44.996094 C 41.5 44.640625 42.417969 44.382812 43.46875 44.28125 C 43.699219 41.949219 43.699219 41.949219 42.988281 39.789062 C 42.277344 39 41.4375 38.359375 40.605469 37.703125 C 38.324219 35.769531 36.742188 32.617188 35.75 29.859375 C 35.636719 29.851562 35.523438 29.84375 35.410156 29.839844 C 30.601562 29.515625 30.601562 29.515625 28.957031 27.75 C 27.699219 26.109375 27.589844 24.367188 27.585938 22.382812 C 27.585938 22.207031 27.582031 22.035156 27.578125 21.859375 C 27.574219 19.855469 27.886719 18.1875 29.25 16.65625 C 30.246094 15.847656 31.1875 15.203125 32.503906 15.214844 C 32.734375 15.214844 32.734375 15.214844 32.96875 15.214844 C 33.207031 15.21875 33.207031 15.21875 33.453125 15.222656 C 33.613281 15.222656 33.777344 15.222656 33.941406 15.222656 C 34.34375 15.226562 34.742188 15.230469 35.140625 15.234375 C 35.167969 14.914062 35.167969 14.914062 35.195312 14.585938 C 35.511719 11.171875 36.359375 7.886719 38.933594 5.445312 C 40.042969 4.582031 41.347656 4.011719 42.679688 3.578125 C 43.390625 3.335938 43.871094 2.945312 44.445312 2.464844 C 46.855469 0.457031 49.78125 -0.117188 52.851562 -0.0898438 Z M 70.890625 29.65625 C 70.835938 29.777344 70.78125 29.898438 70.722656 30.023438 C 70.46875 30.578125 70.210938 31.132812 69.953125 31.6875 C 69.863281 31.878906 69.777344 32.066406 69.6875 32.261719 C 69.179688 33.351562 68.632812 34.300781 67.867188 35.230469 C 67.601562 35.535156 67.601562 35.535156 67.640625 35.953125 C 68.8125 36.023438 69.679688 36.023438 70.6875 35.34375 C 71.472656 34.492188 71.960938 33.765625 71.945312 32.59375 C 71.945312 32.421875 71.941406 32.25 71.941406 32.074219 C 71.9375 31.894531 71.933594 31.71875 71.929688 31.535156 C 71.929688 31.355469 71.929688 31.175781 71.925781 30.988281 C 71.921875 30.542969 71.914062 30.101562 71.90625 29.65625 C 71.570312 29.65625 71.234375 29.65625 70.890625 29.65625 Z M 70.890625 29.65625 "/>
<path style=" stroke:none;fill-rule:nonzero;fill:rgb(61.960787%,82.352942%,98.823529%);fill-opacity:1;" d="M 7.203125 73.910156 C 7.359375 73.910156 7.519531 73.910156 7.679688 73.90625 C 8.207031 73.90625 8.738281 73.90625 9.265625 73.90625 C 9.648438 73.90625 10.027344 73.90625 10.410156 73.902344 C 11.460938 73.902344 12.511719 73.898438 13.566406 73.898438 C 14.699219 73.898438 15.832031 73.894531 16.964844 73.894531 C 19.699219 73.886719 22.4375 73.886719 25.175781 73.882812 C 25.949219 73.882812 26.722656 73.882812 27.492188 73.878906 C 32.289062 73.875 37.085938 73.871094 41.882812 73.867188 C 42.996094 73.867188 44.105469 73.867188 45.21875 73.867188 C 45.355469 73.867188 45.492188 73.867188 45.636719 73.867188 C 50.113281 73.863281 54.589844 73.855469 59.066406 73.847656 C 63.800781 73.839844 68.53125 73.835938 73.265625 73.832031 C 75.84375 73.832031 78.425781 73.832031 81.003906 73.824219 C 83.203125 73.816406 85.398438 73.816406 87.597656 73.816406 C 88.71875 73.820312 89.839844 73.820312 90.960938 73.8125 C 91.988281 73.808594 93.011719 73.808594 94.039062 73.8125 C 94.410156 73.8125 94.78125 73.8125 95.152344 73.808594 C 98.59375 73.78125 98.59375 73.78125 99.9375 74.953125 C 100.6875 75.761719 100.976562 76.367188 100.984375 77.464844 C 100.984375 77.648438 100.988281 77.828125 100.988281 78.015625 C 100.992188 78.3125 100.992188 78.3125 100.992188 78.617188 C 100.992188 78.824219 100.996094 79.035156 100.996094 79.25 C 101.003906 79.945312 101.003906 80.640625 101.007812 81.335938 C 101.007812 81.570312 101.011719 81.808594 101.011719 82.054688 C 101.015625 83.308594 101.019531 84.566406 101.023438 85.820312 C 101.027344 87.117188 101.035156 88.414062 101.046875 89.710938 C 101.054688 90.707031 101.054688 91.703125 101.058594 92.699219 C 101.058594 93.179688 101.0625 93.65625 101.066406 94.132812 C 101.074219 94.804688 101.074219 95.472656 101.070312 96.140625 C 101.074219 96.339844 101.078125 96.535156 101.082031 96.738281 C 101.070312 98.058594 100.816406 98.9375 99.9375 99.9375 C 98.84375 100.84375 97.90625 101.101562 96.507812 101.078125 C 96.335938 101.082031 96.160156 101.082031 95.980469 101.082031 C 95.402344 101.085938 94.820312 101.082031 94.242188 101.078125 C 93.824219 101.078125 93.40625 101.078125 92.988281 101.082031 C 92.089844 101.082031 91.195312 101.082031 90.296875 101.078125 C 88.878906 101.074219 87.460938 101.078125 86.042969 101.082031 C 83.546875 101.085938 81.050781 101.085938 78.558594 101.082031 C 74.796875 101.078125 71.035156 101.078125 67.273438 101.085938 C 65.863281 101.089844 64.453125 101.085938 63.042969 101.082031 C 62.167969 101.082031 61.289062 101.082031 60.414062 101.085938 C 60.007812 101.085938 59.601562 101.082031 59.195312 101.082031 C 58.640625 101.078125 58.085938 101.078125 57.535156 101.082031 C 57.371094 101.082031 57.207031 101.078125 57.042969 101.078125 C 56.207031 101.078125 56.207031 101.078125 55.460938 101.414062 C 55.195312 101.820312 55.195312 101.820312 55.046875 102.578125 C 53.707031 102.578125 52.367188 102.578125 50.984375 102.578125 C 50.851562 102.175781 50.714844 101.773438 50.578125 101.359375 C 49.796875 101 48.855469 101.128906 48.003906 101.128906 C 47.824219 101.128906 47.644531 101.128906 47.460938 101.128906 C 46.855469 101.128906 46.253906 101.128906 45.648438 101.128906 C 45.21875 101.125 44.785156 101.125 44.351562 101.125 C 43.421875 101.125 42.492188 101.121094 41.558594 101.121094 C 40.085938 101.121094 38.617188 101.117188 37.144531 101.113281 C 36.640625 101.113281 36.136719 101.109375 35.632812 101.109375 C 35.378906 101.109375 35.125 101.109375 34.867188 101.109375 C 31.4375 101.097656 28.011719 101.09375 24.582031 101.089844 C 22.269531 101.089844 19.957031 101.082031 17.648438 101.074219 C 16.421875 101.070312 15.199219 101.070312 13.976562 101.070312 C 12.824219 101.070312 11.675781 101.070312 10.523438 101.0625 C 10.101562 101.0625 9.679688 101.0625 9.257812 101.0625 C 8.679688 101.066406 8.101562 101.0625 7.527344 101.058594 C 7.359375 101.058594 7.191406 101.0625 7.019531 101.0625 C 5.875 101.046875 5.210938 100.792969 4.265625 100.140625 C 3.484375 99.296875 2.996094 98.5625 2.992188 97.398438 C 2.992188 97.21875 2.988281 97.035156 2.988281 96.847656 C 2.988281 96.550781 2.988281 96.550781 2.988281 96.246094 C 2.988281 96.039062 2.984375 95.828125 2.984375 95.613281 C 2.980469 94.917969 2.980469 94.222656 2.980469 93.527344 C 2.976562 93.046875 2.976562 92.5625 2.972656 92.082031 C 2.972656 91.066406 2.972656 90.054688 2.972656 89.042969 C 2.972656 87.746094 2.964844 86.449219 2.960938 85.152344 C 2.953125 84.15625 2.953125 83.160156 2.953125 82.164062 C 2.953125 81.683594 2.953125 81.207031 2.949219 80.730469 C 2.945312 80.058594 2.945312 79.390625 2.949219 78.722656 C 2.945312 78.523438 2.945312 78.328125 2.941406 78.125 C 2.953125 76.734375 3.222656 75.851562 4.183594 74.800781 C 5.210938 74.007812 5.945312 73.90625 7.203125 73.910156 Z M 7.203125 73.910156 "/>
<path style=" stroke:none;fill-rule:nonzero;fill:rgb(99.607843%,73.333335%,51.764709%);fill-opacity:1;" d="M 51.707031 18.285156 C 52.917969 18.816406 54.105469 19.394531 55.292969 19.96875 C 59.632812 22.054688 63.660156 22.644531 68.453125 22.75 C 68.628906 27.640625 67.394531 31.390625 64.1875 35.140625 C 64.054688 35.316406 63.917969 35.496094 63.78125 35.675781 C 62.894531 36.375 62.148438 36.292969 61.050781 36.277344 C 60.742188 36.28125 60.742188 36.28125 60.429688 36.285156 C 59.777344 36.289062 59.125 36.285156 58.476562 36.28125 C 57.820312 36.28125 57.167969 36.28125 56.515625 36.289062 C 56.109375 36.289062 55.703125 36.289062 55.296875 36.285156 C 55.019531 36.285156 55.019531 36.285156 54.738281 36.289062 C 54.496094 36.285156 54.496094 36.285156 54.25 36.285156 C 53.714844 36.378906 53.539062 36.535156 53.21875 36.96875 C 53.101562 37.902344 53.101562 37.902344 53.457031 38.734375 C 53.964844 39.097656 54.332031 39.085938 54.953125 39.105469 C 55.171875 39.109375 55.390625 39.117188 55.613281 39.125 C 55.957031 39.132812 55.957031 39.132812 56.304688 39.140625 C 56.535156 39.148438 56.761719 39.152344 57 39.160156 C 57.566406 39.175781 58.136719 39.191406 58.703125 39.203125 C 58.117188 39.65625 57.589844 39.972656 56.898438 40.242188 C 56.648438 40.34375 56.648438 40.34375 56.394531 40.449219 C 53.6875 41.339844 50.992188 40.890625 48.484375 39.695312 C 47.097656 38.984375 45.867188 38.183594 44.6875 37.171875 C 44.523438 37.039062 44.363281 36.90625 44.195312 36.769531 C 41 34.046875 38.574219 30.105469 38.152344 25.871094 C 38.039062 23.652344 38.039062 23.652344 38.703125 22.714844 C 39.546875 21.871094 40.53125 21.234375 41.550781 20.617188 C 42.015625 20.332031 42.464844 20.03125 42.910156 19.714844 C 45.929688 17.609375 48.109375 16.785156 51.707031 18.285156 Z M 51.707031 18.285156 "/>
<path style=" stroke:none;fill-rule:nonzero;fill:rgb(21.176471%,36.470589%,48.627451%);fill-opacity:1;" d="M 67.4375 49.15625 C 68.175781 49.257812 68.785156 49.371094 69.4375 49.734375 C 69.574219 49.808594 69.707031 49.878906 69.847656 49.953125 C 70.128906 50.109375 70.40625 50.261719 70.683594 50.417969 C 71.601562 50.902344 72.265625 51.101562 73.328125 50.984375 C 73.722656 50.710938 73.722656 50.710938 73.9375 50.375 C 75.074219 50.800781 76.136719 51.3125 76.984375 52.203125 C 77.03125 52.664062 77.03125 52.664062 76.960938 53.15625 C 76.878906 53.6875 76.878906 53.6875 76.984375 54.234375 C 77.433594 54.78125 77.902344 55.234375 78.421875 55.707031 C 80.441406 57.566406 81.605469 59.914062 82.265625 62.5625 C 82.265625 65.3125 82.265625 68.058594 82.265625 70.890625 C 74.890625 70.890625 67.519531 70.890625 59.921875 70.890625 C 58.144531 61.699219 58.144531 61.699219 59.324219 59.4375 C 59.441406 59.214844 59.441406 59.214844 59.558594 58.988281 C 59.746094 58.621094 59.933594 58.253906 60.125 57.890625 C 60.304688 57.9375 60.304688 57.9375 60.488281 57.988281 C 61.136719 58.140625 61.691406 58.152344 62.359375 58.09375 C 63.074219 57.515625 63.425781 56.863281 63.824219 56.042969 C 63.882812 55.925781 63.941406 55.804688 64 55.683594 C 64.1875 55.300781 64.371094 54.921875 64.554688 54.539062 C 64.796875 54.042969 65.039062 53.542969 65.285156 53.046875 C 65.34375 52.925781 65.402344 52.804688 65.464844 52.679688 C 66.0625 51.46875 66.738281 50.3125 67.4375 49.15625 Z M 67.4375 49.15625 "/>
<path style=" stroke:none;fill-rule:nonzero;fill:rgb(21.176471%,36.470589%,48.627451%);fill-opacity:1;" d="M 39 48.953125 C 39.476562 49.386719 39.757812 49.789062 40.035156 50.367188 C 40.113281 50.527344 40.191406 50.6875 40.273438 50.855469 C 40.355469 51.027344 40.4375 51.199219 40.523438 51.378906 C 41.359375 53.085938 42.246094 54.757812 43.183594 56.414062 C 43.320312 56.65625 43.320312 56.65625 43.457031 56.902344 C 43.539062 57.042969 43.617188 57.1875 43.703125 57.332031 C 43.875 57.6875 43.875 57.6875 43.875 58.09375 C 44.164062 58.097656 44.449219 58.101562 44.738281 58.105469 C 44.980469 58.109375 44.980469 58.109375 45.222656 58.113281 C 45.6875 58.09375 46.070312 58.007812 46.515625 57.890625 C 46.785156 58.40625 47.050781 58.921875 47.316406 59.4375 C 47.390625 59.585938 47.46875 59.730469 47.546875 59.878906 C 47.617188 60.019531 47.691406 60.164062 47.765625 60.3125 C 47.832031 60.441406 47.898438 60.570312 47.96875 60.703125 C 48.457031 61.9375 48.292969 62.976562 48.058594 64.242188 C 48.027344 64.417969 47.996094 64.597656 47.964844 64.78125 C 47.898438 65.152344 47.832031 65.527344 47.761719 65.898438 C 47.65625 66.472656 47.554688 67.046875 47.453125 67.621094 C 47.390625 67.984375 47.324219 68.347656 47.261719 68.710938 C 47.230469 68.882812 47.199219 69.054688 47.167969 69.230469 C 46.945312 70.4375 46.945312 70.4375 46.71875 70.890625 C 39.34375 70.890625 31.972656 70.890625 24.375 70.890625 C 24.375 59.628906 24.375 59.628906 28.695312 55.179688 C 31.5625 52.472656 35.339844 50.367188 39 48.953125 Z M 39 48.953125 "/>
<path style=" stroke:none;fill-rule:nonzero;fill:rgb(21.176471%,36.470589%,48.627451%);fill-opacity:1;" d="M 64.214844 7.023438 C 66.363281 8.765625 68.003906 11.265625 68.453125 14.015625 C 68.46875 14.476562 68.476562 14.941406 68.472656 15.402344 C 68.472656 15.664062 68.472656 15.929688 68.472656 16.199219 C 68.46875 16.472656 68.46875 16.75 68.464844 17.023438 C 68.464844 17.304688 68.464844 17.582031 68.464844 17.863281 C 68.460938 18.542969 68.457031 19.226562 68.453125 19.90625 C 64.183594 20.101562 60.601562 19.355469 56.757812 17.503906 C 56.019531 17.148438 55.273438 16.800781 54.527344 16.457031 C 54.148438 16.28125 53.773438 16.105469 53.394531 15.925781 C 50.917969 14.777344 47.988281 13.945312 45.296875 14.902344 C 43.054688 15.972656 40.988281 17.449219 39.03125 18.96875 C 38.59375 19.296875 38.59375 19.296875 38.390625 19.296875 C 38.15625 11.03125 38.15625 11.03125 40.757812 8.160156 C 41.800781 7.183594 42.957031 6.804688 44.332031 6.523438 C 45.230469 6.253906 45.355469 6.011719 45.90625 5.28125 C 51.367188 0.882812 59.121094 3.261719 64.214844 7.023438 Z M 64.214844 7.023438 "/>
<path style=" stroke:none;fill-rule:nonzero;fill:rgb(52.156866%,74.117649%,92.941177%);fill-opacity:1;" d="M 5.6875 73.9375 C 17.460938 73.914062 29.230469 73.894531 41.003906 73.886719 C 42.394531 73.882812 43.78125 73.882812 45.171875 73.882812 C 45.378906 73.882812 45.378906 73.882812 45.589844 73.882812 C 50.070312 73.878906 54.554688 73.871094 59.035156 73.859375 C 63.769531 73.851562 68.503906 73.84375 73.242188 73.84375 C 76.078125 73.839844 78.914062 73.835938 81.75 73.828125 C 83.695312 73.824219 85.640625 73.820312 87.585938 73.820312 C 88.707031 73.824219 89.828125 73.820312 90.953125 73.816406 C 91.980469 73.8125 93.007812 73.8125 94.035156 73.816406 C 94.40625 73.816406 94.777344 73.8125 95.148438 73.8125 C 98.597656 73.78125 98.597656 73.78125 99.9375 74.953125 C 100.6875 75.761719 100.976562 76.367188 100.984375 77.464844 C 100.984375 77.648438 100.988281 77.828125 100.988281 78.015625 C 100.992188 78.3125 100.992188 78.3125 100.992188 78.617188 C 100.992188 78.824219 100.996094 79.035156 100.996094 79.25 C 101.003906 79.945312 101.003906 80.640625 101.007812 81.335938 C 101.007812 81.570312 101.011719 81.808594 101.011719 82.054688 C 101.015625 83.308594 101.019531 84.566406 101.023438 85.820312 C 101.027344 87.117188 101.035156 88.414062 101.046875 89.710938 C 101.054688 90.707031 101.054688 91.703125 101.058594 92.699219 C 101.058594 93.179688 101.0625 93.65625 101.066406 94.132812 C 101.074219 94.804688 101.074219 95.472656 101.070312 96.140625 C 101.074219 96.339844 101.078125 96.535156 101.082031 96.738281 C 101.070312 98.046875 100.792969 98.933594 99.9375 99.9375 C 98.667969 101.089844 97.433594 101.082031 95.773438 101.015625 C 95.4375 101.007812 95.4375 101.007812 95.089844 101.003906 C 94.539062 100.992188 93.988281 100.972656 93.4375 100.953125 C 93.507812 100.824219 93.578125 100.699219 93.652344 100.566406 C 93.746094 100.402344 93.835938 100.234375 93.933594 100.0625 C 94.070312 99.816406 94.070312 99.816406 94.210938 99.566406 C 94.660156 98.75 94.6875 98.238281 94.699219 97.292969 C 94.699219 97.144531 94.703125 97 94.703125 96.847656 C 94.710938 96.363281 94.714844 95.875 94.71875 95.390625 C 94.726562 95.054688 94.730469 94.71875 94.734375 94.382812 C 94.746094 93.496094 94.753906 92.609375 94.765625 91.722656 C 94.773438 90.820312 94.785156 89.914062 94.796875 89.011719 C 94.820312 87.238281 94.839844 85.460938 94.859375 83.6875 C 94.660156 83.6875 94.457031 83.6875 94.25 83.6875 C 94.25 83.804688 94.253906 83.921875 94.253906 84.042969 C 94.273438 85.265625 94.285156 86.488281 94.292969 87.710938 C 94.296875 88.167969 94.304688 88.621094 94.3125 89.078125 C 94.320312 89.734375 94.324219 90.390625 94.328125 91.046875 C 94.332031 91.25 94.335938 91.453125 94.34375 91.664062 C 94.34375 92.554688 94.339844 93.085938 93.875 93.867188 C 93.304688 94.363281 92.976562 94.46875 92.21875 94.453125 C 91.679688 94.191406 91.679688 94.191406 91.203125 93.640625 C 91.058594 92.875 91.085938 92.117188 91.105469 91.339844 C 91.105469 91.117188 91.105469 90.890625 91.109375 90.660156 C 91.113281 89.945312 91.125 89.226562 91.140625 88.511719 C 91.144531 88.027344 91.148438 87.539062 91.152344 87.054688 C 91.164062 85.863281 91.183594 84.675781 91.203125 83.484375 C 91.046875 83.488281 90.894531 83.492188 90.734375 83.496094 C 90.53125 83.5 90.328125 83.5 90.121094 83.503906 C 89.917969 83.507812 89.71875 83.511719 89.511719 83.515625 C 88.96875 83.484375 88.96875 83.484375 88.421875 83.15625 C 88.070312 82.511719 88.023438 82.175781 88.15625 81.453125 C 88.679688 80.800781 88.972656 80.472656 89.808594 80.320312 C 90.042969 80.328125 90.273438 80.332031 90.515625 80.339844 C 90.769531 80.339844 91.023438 80.34375 91.28125 80.347656 C 91.546875 80.355469 91.808594 80.367188 92.078125 80.375 C 92.347656 80.378906 92.613281 80.382812 92.886719 80.386719 C 93.542969 80.398438 94.203125 80.417969 94.859375 80.4375 C 94.839844 79.828125 94.820312 79.21875 94.796875 78.609375 C 94.792969 78.4375 94.785156 78.269531 94.78125 78.09375 C 94.722656 76.667969 94.445312 75.550781 93.640625 74.34375 C 92.996094 74.25 92.996094 74.25 92.21875 74.265625 C 92.066406 74.265625 91.917969 74.261719 91.765625 74.261719 C 91.261719 74.257812 90.757812 74.261719 90.253906 74.261719 C 89.890625 74.261719 89.527344 74.261719 89.164062 74.257812 C 88.160156 74.253906 87.160156 74.253906 86.15625 74.253906 C 85.078125 74.257812 84 74.253906 82.921875 74.25 C 81.050781 74.246094 79.179688 74.242188 77.308594 74.242188 C 74.605469 74.242188 71.898438 74.234375 69.195312 74.230469 C 64.808594 74.222656 60.421875 74.214844 56.03125 74.210938 C 51.769531 74.207031 47.507812 74.203125 43.242188 74.195312 C 42.980469 74.195312 42.71875 74.191406 42.445312 74.191406 C 41.128906 74.191406 39.8125 74.1875 38.496094 74.1875 C 27.558594 74.167969 16.625 74.152344 5.6875 74.140625 C 5.6875 74.074219 5.6875 74.007812 5.6875 73.9375 Z M 5.6875 73.9375 "/>
<path style=" stroke:none;fill-rule:nonzero;fill:rgb(0.784314%,1.176471%,1.568628%);fill-opacity:1;" d="M 68.992188 81.339844 C 70.6875 82.4375 71.617188 83.835938 72.3125 85.71875 C 72.554688 87.871094 72.390625 89.734375 71.125 91.53125 C 70.003906 92.902344 68.640625 94.042969 66.835938 94.308594 C 64.496094 94.507812 62.582031 94.148438 60.75 92.628906 C 59.277344 91.195312 58.484375 89.507812 58.410156 87.46875 C 58.464844 85.503906 59.191406 83.902344 60.53125 82.46875 C 62.925781 80.277344 66.121094 79.773438 68.992188 81.339844 Z M 68.992188 81.339844 "/>
<path style=" stroke:none;fill-rule:nonzero;fill:rgb(16.470589%,29.803923%,39.607844%);fill-opacity:1;" d="M 67.4375 49.15625 C 68.6875 49.277344 69.609375 49.816406 70.683594 50.417969 C 71.601562 50.902344 72.265625 51.101562 73.328125 50.984375 C 73.722656 50.710938 73.722656 50.710938 73.9375 50.375 C 75.074219 50.800781 76.136719 51.3125 76.984375 52.203125 C 77.03125 52.664062 77.03125 52.664062 76.960938 53.15625 C 76.878906 53.6875 76.878906 53.6875 76.984375 54.234375 C 77.433594 54.78125 77.902344 55.234375 78.421875 55.707031 C 80.429688 57.554688 82.089844 60.261719 82.300781 63.027344 C 82.3125 63.535156 82.3125 64.039062 82.304688 64.542969 C 82.304688 64.726562 82.304688 64.90625 82.304688 65.097656 C 82.300781 65.671875 82.296875 66.25 82.289062 66.828125 C 82.289062 67.222656 82.289062 67.617188 82.285156 68.007812 C 82.28125 68.96875 82.273438 69.929688 82.265625 70.890625 C 80.65625 70.890625 79.046875 70.890625 77.390625 70.890625 C 77.371094 70.1875 77.347656 69.484375 77.328125 68.757812 C 77.210938 65.847656 76.882812 63.171875 75.5625 60.53125 C 75.460938 60.332031 75.363281 60.132812 75.257812 59.925781 C 73.285156 56.28125 70.023438 53.753906 66.21875 52.203125 C 66.019531 52.304688 66.019531 52.304688 65.8125 52.40625 C 66.101562 51.636719 66.453125 50.929688 66.851562 50.210938 C 66.964844 50.011719 67.074219 49.8125 67.183594 49.609375 C 67.269531 49.460938 67.351562 49.308594 67.4375 49.15625 Z M 67.4375 49.15625 "/>
<path style=" stroke:none;fill-rule:nonzero;fill:rgb(0.392157%,0.784314%,0.784314%);fill-opacity:1;" d="M 78.105469 80.308594 C 78.273438 80.308594 78.445312 80.308594 78.617188 80.304688 C 78.882812 80.316406 78.882812 80.316406 79.15625 80.324219 C 79.429688 80.328125 79.429688 80.328125 79.707031 80.335938 C 81.261719 80.390625 82.53125 80.558594 83.710938 81.644531 C 84.84375 82.878906 84.980469 83.808594 84.960938 85.46875 C 84.855469 86.730469 84.285156 87.410156 83.359375 88.246094 C 82.734375 88.765625 82.734375 88.765625 82.265625 88.765625 C 82.890625 89.628906 83.53125 90.449219 84.257812 91.226562 C 84.699219 91.726562 84.910156 92.027344 85.148438 92.664062 C 85.109375 93.234375 85.109375 93.234375 84.816406 93.820312 C 84.226562 94.308594 83.855469 94.363281 83.09375 94.34375 C 82.304688 94.167969 81.898438 93.597656 81.402344 92.992188 C 81.300781 92.875 81.199219 92.757812 81.09375 92.636719 C 80.519531 91.972656 79.96875 91.285156 79.421875 90.59375 C 79.417969 90.773438 79.410156 90.953125 79.40625 91.136719 C 79.394531 91.371094 79.382812 91.609375 79.371094 91.851562 C 79.355469 92.199219 79.355469 92.199219 79.34375 92.558594 C 79.199219 93.34375 78.976562 93.695312 78.40625 94.25 C 77.695312 94.363281 77.695312 94.363281 76.984375 94.25 C 76.429688 93.824219 76.199219 93.585938 76.066406 92.890625 C 76.066406 92.683594 76.066406 92.476562 76.0625 92.261719 C 76.058594 92.023438 76.058594 91.789062 76.054688 91.542969 C 76.054688 91.289062 76.054688 91.035156 76.058594 90.773438 C 76.054688 90.511719 76.054688 90.246094 76.054688 89.976562 C 76.050781 89.421875 76.050781 88.867188 76.054688 88.3125 C 76.058594 87.601562 76.054688 86.890625 76.046875 86.183594 C 76.039062 85.503906 76.042969 84.824219 76.042969 84.144531 C 76.042969 83.890625 76.039062 83.636719 76.035156 83.375 C 76.054688 81.625 76.054688 81.625 76.628906 80.785156 C 77.1875 80.4375 77.457031 80.308594 78.105469 80.308594 Z M 78.105469 80.308594 "/>
<path style=" stroke:none;fill-rule:nonzero;fill:rgb(1.960784%,2.745098%,3.529412%);fill-opacity:1;" d="M 21.542969 80.425781 C 22.320312 80.707031 22.523438 80.945312 22.953125 81.65625 C 23.074219 82.339844 23.074219 83.015625 23.078125 83.710938 C 23.082031 84.007812 23.082031 84.007812 23.085938 84.308594 C 23.097656 84.933594 23.101562 85.5625 23.105469 86.1875 C 23.109375 86.613281 23.117188 87.039062 23.125 87.464844 C 23.140625 88.507812 23.148438 89.550781 23.15625 90.59375 C 23.800781 90.9375 24.234375 91.054688 24.972656 91.050781 C 25.226562 91.050781 25.226562 91.050781 25.484375 91.054688 C 26.054688 90.996094 26.488281 90.816406 27.015625 90.59375 C 27.015625 90.328125 27.019531 90.0625 27.019531 89.789062 C 27.03125 88.804688 27.042969 87.816406 27.058594 86.832031 C 27.0625 86.40625 27.066406 85.976562 27.070312 85.550781 C 27.074219 84.9375 27.085938 84.324219 27.09375 83.710938 C 27.09375 83.519531 27.09375 83.328125 27.097656 83.132812 C 27.113281 82.273438 27.144531 81.78125 27.59375 81.035156 C 28.160156 80.523438 28.488281 80.421875 29.25 80.4375 C 29.808594 80.796875 30.171875 81.058594 30.46875 81.65625 C 30.492188 82.273438 30.507812 82.886719 30.511719 83.503906 C 30.511719 83.691406 30.511719 83.875 30.511719 84.066406 C 30.515625 84.457031 30.515625 84.851562 30.515625 85.242188 C 30.519531 85.839844 30.527344 86.433594 30.53125 87.03125 C 30.535156 87.414062 30.535156 87.796875 30.535156 88.175781 C 30.539062 88.355469 30.539062 88.53125 30.542969 88.714844 C 30.539062 90.242188 30.222656 91.574219 29.167969 92.75 C 27.683594 94.039062 26.066406 94.378906 24.148438 94.332031 C 22.777344 94.1875 21.863281 93.613281 20.941406 92.609375 C 20.238281 91.714844 19.886719 91.015625 19.867188 89.863281 C 19.863281 89.675781 19.859375 89.488281 19.855469 89.292969 C 19.847656 88.433594 19.839844 87.574219 19.835938 86.714844 C 19.832031 86.261719 19.828125 85.808594 19.820312 85.355469 C 19.808594 84.703125 19.804688 84.050781 19.800781 83.394531 C 19.796875 83.195312 19.789062 82.992188 19.785156 82.78125 C 19.789062 81.382812 19.789062 81.382812 20.382812 80.710938 C 20.921875 80.4375 20.921875 80.4375 21.542969 80.425781 Z M 21.542969 80.425781 "/>
<path style=" stroke:none;fill-rule:nonzero;fill:rgb(0.784314%,1.176471%,1.176471%);fill-opacity:1;" d="M 36.347656 80.300781 C 36.632812 80.300781 36.632812 80.300781 36.917969 80.296875 C 37.214844 80.304688 37.214844 80.304688 37.515625 80.3125 C 37.816406 80.316406 37.816406 80.316406 38.125 80.320312 C 39.996094 80.382812 41.253906 80.769531 42.554688 82.152344 C 43.398438 83.261719 43.589844 84.367188 43.554688 85.742188 C 43.367188 87 42.742188 87.910156 41.816406 88.757812 C 40.410156 89.746094 39.042969 89.707031 37.375 89.578125 C 37.378906 89.691406 37.382812 89.804688 37.386719 89.917969 C 37.40625 90.433594 37.414062 90.945312 37.425781 91.457031 C 37.4375 91.722656 37.4375 91.722656 37.445312 91.996094 C 37.464844 93.304688 37.464844 93.304688 37.011719 93.960938 C 36.347656 94.390625 35.910156 94.375 35.140625 94.25 C 34.425781 93.539062 34.226562 93.054688 34.21875 92.054688 C 34.214844 91.820312 34.214844 91.589844 34.210938 91.347656 C 34.210938 91.101562 34.210938 90.851562 34.214844 90.59375 C 34.210938 90.335938 34.210938 90.078125 34.210938 89.8125 C 34.207031 89.269531 34.207031 88.722656 34.210938 88.179688 C 34.214844 87.484375 34.210938 86.789062 34.203125 86.09375 C 34.195312 85.425781 34.199219 84.761719 34.199219 84.09375 C 34.199219 83.84375 34.195312 83.59375 34.191406 83.339844 C 34.210938 81.625 34.210938 81.625 34.78125 80.789062 C 35.367188 80.421875 35.664062 80.308594 36.347656 80.300781 Z M 36.347656 80.300781 "/>
<path style=" stroke:none;fill-rule:nonzero;fill:rgb(1.176471%,1.568628%,1.568628%);fill-opacity:1;" d="M 48.738281 80.324219 C 49.023438 80.316406 49.023438 80.316406 49.308594 80.3125 C 49.605469 80.320312 49.605469 80.320312 49.90625 80.324219 C 50.207031 80.328125 50.207031 80.328125 50.515625 80.328125 C 52.1875 80.378906 53.421875 80.601562 54.609375 81.847656 C 55.558594 83.03125 55.972656 84.070312 55.9375 85.59375 C 55.730469 87.023438 54.871094 88.042969 53.777344 88.929688 C 52.867188 89.550781 52.253906 89.625 51.136719 89.601562 C 50.75 89.597656 50.75 89.597656 50.359375 89.59375 C 50.066406 89.585938 50.066406 89.585938 49.765625 89.578125 C 49.773438 89.832031 49.785156 90.082031 49.792969 90.34375 C 49.800781 90.675781 49.808594 91.007812 49.816406 91.34375 C 49.828125 91.589844 49.828125 91.589844 49.835938 91.84375 C 49.851562 92.671875 49.828125 93.125 49.40625 93.851562 C 48.925781 94.273438 48.753906 94.382812 48.128906 94.363281 C 47.328125 94.25 47.328125 94.25 46.980469 93.910156 C 46.652344 93.316406 46.640625 92.914062 46.632812 92.238281 C 46.628906 92 46.628906 91.757812 46.625 91.507812 C 46.625 91.25 46.625 90.988281 46.625 90.71875 C 46.621094 90.453125 46.621094 90.1875 46.617188 89.910156 C 46.617188 89.34375 46.617188 88.78125 46.617188 88.214844 C 46.617188 87.488281 46.613281 86.765625 46.605469 86.042969 C 46.597656 85.351562 46.597656 84.660156 46.597656 83.96875 C 46.59375 83.707031 46.589844 83.445312 46.589844 83.179688 C 46.589844 82.9375 46.59375 82.695312 46.59375 82.449219 C 46.59375 82.234375 46.59375 82.023438 46.59375 81.804688 C 46.839844 80.71875 47.695312 80.335938 48.738281 80.324219 Z M 48.738281 80.324219 "/>
<path style=" stroke:none;fill-rule:nonzero;fill:rgb(0.784314%,1.176471%,1.568628%);fill-opacity:1;" d="M 11.554688 80.390625 C 13.160156 80.28125 14.867188 80.886719 16.097656 81.9375 C 16.574219 82.648438 16.605469 83.050781 16.453125 83.890625 C 15.976562 84.421875 15.652344 84.65625 14.953125 84.804688 C 14.339844 84.6875 13.914062 84.410156 13.386719 84.085938 C 12.714844 83.746094 12.125 83.710938 11.375 83.6875 C 10.742188 84.019531 10.742188 84.019531 10.625 84.523438 C 10.605469 84.652344 10.585938 84.777344 10.5625 84.90625 C 10.8125 84.984375 11.066406 85.066406 11.324219 85.148438 C 15.292969 86.484375 15.292969 86.484375 16.414062 88.066406 C 16.902344 89.070312 17.015625 90.101562 16.859375 91.203125 C 16.363281 92.484375 15.394531 93.371094 14.21875 94.046875 C 12.832031 94.53125 11.03125 94.472656 9.652344 94.011719 C 8.609375 93.507812 7.570312 92.988281 6.90625 92.015625 C 6.777344 91.199219 6.773438 90.792969 7.234375 90.097656 C 7.894531 89.664062 8.15625 89.632812 8.9375 89.78125 C 9.226562 89.976562 9.507812 90.179688 9.789062 90.390625 C 10.707031 91.050781 11.402344 91.121094 12.515625 91.082031 C 13.050781 91.023438 13.050781 91.023438 13.609375 90.59375 C 13.636719 90.109375 13.636719 90.109375 13.40625 89.578125 C 12.65625 89.121094 11.902344 88.8125 11.082031 88.496094 C 9.605469 87.902344 8.609375 87.472656 7.71875 86.125 C 7.363281 85.058594 7.300781 83.878906 7.683594 82.808594 C 8.363281 81.617188 9.359375 80.90625 10.652344 80.476562 C 10.953125 80.453125 11.253906 80.429688 11.554688 80.390625 Z M 11.554688 80.390625 "/>
<path style=" stroke:none;fill-rule:nonzero;fill:rgb(1.176471%,1.568628%,1.960784%);fill-opacity:1;" d="M 90.671875 80.539062 C 90.835938 80.539062 91 80.539062 91.167969 80.539062 C 91.515625 80.539062 91.859375 80.542969 92.207031 80.546875 C 92.738281 80.550781 93.269531 80.550781 93.800781 80.546875 C 94.136719 80.546875 94.472656 80.550781 94.808594 80.550781 C 95.046875 80.550781 95.046875 80.550781 95.289062 80.550781 C 96.378906 80.570312 96.378906 80.570312 96.886719 80.90625 C 97.253906 81.511719 97.1875 81.988281 97.09375 82.671875 C 96.699219 83.269531 96.699219 83.269531 96.078125 83.6875 C 95.617188 83.726562 95.617188 83.726562 95.125 83.714844 C 94.960938 83.710938 94.796875 83.707031 94.628906 83.703125 C 94.503906 83.699219 94.378906 83.691406 94.25 83.6875 C 94.25 83.804688 94.253906 83.921875 94.253906 84.042969 C 94.273438 85.265625 94.285156 86.488281 94.292969 87.710938 C 94.296875 88.167969 94.304688 88.621094 94.3125 89.078125 C 94.320312 89.734375 94.324219 90.390625 94.328125 91.046875 C 94.332031 91.25 94.335938 91.453125 94.34375 91.664062 C 94.34375 92.554688 94.339844 93.085938 93.875 93.867188 C 93.304688 94.363281 92.976562 94.46875 92.21875 94.453125 C 91.679688 94.191406 91.679688 94.191406 91.203125 93.640625 C 91.058594 92.875 91.085938 92.117188 91.105469 91.339844 C 91.105469 91.003906 91.105469 91.003906 91.109375 90.660156 C 91.113281 89.945312 91.125 89.226562 91.140625 88.511719 C 91.144531 88.027344 91.148438 87.539062 91.152344 87.054688 C 91.164062 85.863281 91.183594 84.675781 91.203125 83.484375 C 91.046875 83.488281 90.894531 83.492188 90.734375 83.496094 C 90.53125 83.5 90.328125 83.5 90.121094 83.503906 C 89.917969 83.507812 89.71875 83.511719 89.511719 83.515625 C 88.96875 83.484375 88.96875 83.484375 88.421875 83.15625 C 88.074219 82.523438 88.039062 82.164062 88.15625 81.453125 C 88.824219 80.496094 89.589844 80.523438 90.671875 80.539062 Z M 90.671875 80.539062 "/>
<path style=" stroke:none;fill-rule:nonzero;fill:rgb(94.509804%,65.098041%,41.568628%);fill-opacity:1;" d="M 59.71875 42.046875 C 59.851562 42.046875 59.988281 42.046875 60.125 42.046875 C 60.316406 42.980469 60.347656 43.757812 60.125 44.6875 C 59.496094 45.574219 58.5625 46.195312 57.691406 46.824219 C 57.152344 47.21875 56.632812 47.632812 56.113281 48.050781 C 55.765625 48.328125 55.414062 48.601562 55.058594 48.875 C 54.507812 49.304688 53.964844 49.734375 53.421875 50.171875 C 52.488281 49.578125 51.664062 48.921875 50.832031 48.191406 C 48.84375 46.453125 48.84375 46.453125 46.71875 44.890625 C 46.660156 44.273438 46.660156 44.273438 46.679688 43.546875 C 46.6875 43.304688 46.691406 43.0625 46.699219 42.8125 C 46.703125 42.628906 46.710938 42.441406 46.71875 42.25 C 46.957031 42.332031 47.195312 42.417969 47.441406 42.503906 C 47.808594 42.625 48.179688 42.742188 48.546875 42.859375 C 48.777344 42.933594 49.003906 43.003906 49.238281 43.082031 C 52.878906 44.15625 56.046875 43.632812 59.515625 42.25 C 59.582031 42.183594 59.648438 42.117188 59.71875 42.046875 Z M 59.71875 42.046875 "/>
<path style=" stroke:none;fill-rule:nonzero;fill:rgb(16.470589%,29.411766%,38.82353%);fill-opacity:1;" d="M 56.0625 3.453125 C 60.019531 3.929688 63.933594 6.195312 66.398438 9.304688 C 67.738281 11.1875 68.484375 13.09375 68.472656 15.402344 C 68.472656 15.664062 68.472656 15.929688 68.472656 16.199219 C 68.46875 16.472656 68.46875 16.75 68.464844 17.023438 C 68.464844 17.304688 68.464844 17.582031 68.464844 17.863281 C 68.460938 18.542969 68.457031 19.226562 68.453125 19.90625 C 67.046875 19.90625 65.636719 19.90625 64.1875 19.90625 C 64.320312 19.839844 64.457031 19.773438 64.59375 19.703125 C 64.578125 18.910156 64.5625 18.113281 64.539062 17.320312 C 64.53125 16.921875 64.523438 16.519531 64.515625 16.121094 C 64.421875 12.742188 63.566406 10.082031 61.34375 7.515625 C 61.226562 7.378906 61.109375 7.246094 60.992188 7.105469 C 59.972656 6.003906 58.789062 5.246094 57.519531 4.464844 C 57.011719 4.148438 56.535156 3.824219 56.0625 3.453125 Z M 56.0625 3.453125 "/>
<path style=" stroke:none;fill-rule:nonzero;fill:rgb(94.117647%,64.705884%,41.568628%);fill-opacity:1;" d="M 64.59375 22.75 C 65.867188 22.75 67.140625 22.75 68.453125 22.75 C 68.589844 27.671875 67.417969 31.363281 64.1875 35.140625 C 64.050781 35.316406 63.917969 35.496094 63.777344 35.679688 C 62.90625 36.367188 62.199219 36.285156 61.117188 36.253906 C 60.820312 36.253906 60.820312 36.253906 60.519531 36.25 C 59.894531 36.246094 59.265625 36.234375 58.640625 36.21875 C 58.214844 36.214844 57.789062 36.210938 57.363281 36.207031 C 56.320312 36.195312 55.277344 36.175781 54.234375 36.15625 C 54.234375 36.089844 54.234375 36.023438 54.234375 35.953125 C 54.40625 35.957031 54.574219 35.960938 54.75 35.964844 C 55.386719 35.980469 56.023438 35.980469 56.660156 35.976562 C 57.070312 35.976562 57.480469 35.988281 57.886719 36 C 59.367188 36.003906 59.367188 36.003906 60.644531 35.339844 C 61.070312 34.820312 61.414062 34.300781 61.75 33.71875 C 61.84375 33.570312 61.933594 33.425781 62.03125 33.273438 C 64.113281 29.859375 64.527344 26.683594 64.59375 22.75 Z M 64.59375 22.75 "/>
<path style=" stroke:none;fill-rule:nonzero;fill:rgb(61.176473%,81.568629%,98.039216%);fill-opacity:1;" d="M 67.234375 83.851562 C 68.101562 84.371094 68.816406 85.222656 69.265625 86.125 C 69.410156 87.421875 69.511719 88.617188 68.707031 89.703125 C 67.96875 90.558594 67.242188 91.128906 66.097656 91.265625 C 64.734375 91.324219 63.828125 91.203125 62.734375 90.355469 C 61.886719 89.515625 61.511719 88.636719 61.445312 87.445312 C 61.511719 86.269531 61.882812 85.347656 62.753906 84.542969 C 64.179688 83.4375 65.523438 83.160156 67.234375 83.851562 Z M 67.234375 83.851562 "/>
<path style=" stroke:none;fill-rule:nonzero;fill:rgb(90.980393%,32.156864%,40.000001%);fill-opacity:1;" d="M 51.1875 63.171875 C 51.894531 63.164062 52.601562 63.164062 53.308594 63.160156 C 53.609375 63.15625 53.609375 63.15625 53.917969 63.152344 C 54.109375 63.152344 54.300781 63.152344 54.5 63.152344 C 54.765625 63.152344 54.765625 63.152344 55.039062 63.148438 C 55.453125 63.171875 55.453125 63.171875 55.65625 63.375 C 55.761719 63.894531 55.855469 64.414062 55.941406 64.9375 C 55.96875 65.09375 55.996094 65.25 56.023438 65.410156 C 56.082031 65.742188 56.136719 66.074219 56.191406 66.40625 C 56.277344 66.914062 56.363281 67.421875 56.453125 67.929688 C 56.507812 68.253906 56.5625 68.574219 56.617188 68.898438 C 56.640625 69.050781 56.667969 69.203125 56.695312 69.359375 C 56.875 70.4375 56.875 70.4375 56.875 70.890625 C 54.597656 70.890625 52.316406 70.890625 49.96875 70.890625 C 49.96875 69.796875 49.980469 69.007812 50.183594 67.980469 C 50.230469 67.75 50.273438 67.519531 50.320312 67.285156 C 50.367188 67.050781 50.414062 66.816406 50.464844 66.574219 C 50.511719 66.335938 50.558594 66.097656 50.605469 65.855469 C 50.972656 64 50.972656 64 51.1875 63.171875 Z M 51.1875 63.171875 "/>
<path style=" stroke:none;fill-rule:nonzero;fill:rgb(90.588236%,32.156864%,40.000001%);fill-opacity:1;" d="M 54.03125 54.234375 C 54.640625 54.523438 55.230469 54.839844 55.820312 55.160156 C 55.980469 55.246094 56.140625 55.332031 56.304688 55.421875 C 56.699219 55.632812 57.09375 55.847656 57.484375 56.0625 C 57.351562 57.019531 56.972656 57.804688 56.558594 58.664062 C 56.328125 59.148438 56.097656 59.628906 55.859375 60.125 C 54.25 60.125 52.640625 60.125 50.984375 60.125 C 50.71875 59.601562 50.457031 59.078125 50.183594 58.539062 C 50.101562 58.375 50.019531 58.210938 49.933594 58.039062 C 49.867188 57.910156 49.800781 57.78125 49.734375 57.644531 C 49.667969 57.511719 49.601562 57.378906 49.53125 57.242188 C 49.359375 56.875 49.359375 56.875 49.15625 56.265625 C 49.570312 56.007812 49.984375 55.75 50.398438 55.492188 C 50.515625 55.417969 50.632812 55.347656 50.75 55.273438 C 53.019531 53.867188 53.019531 53.867188 54.03125 54.234375 Z M 54.03125 54.234375 "/>
<path style=" stroke:none;fill-rule:nonzero;fill:rgb(61.176473%,81.568629%,98.039216%);fill-opacity:1;" d="M 71.5 18.28125 C 74.34375 18.28125 74.34375 18.28125 75.09375 18.625 C 76.058594 19.589844 76.25 20.316406 76.253906 21.65625 C 76.253906 21.84375 76.25 22.035156 76.25 22.230469 C 76.25 22.417969 76.253906 22.605469 76.253906 22.800781 C 76.25 24.0625 76.085938 24.960938 75.257812 25.960938 C 74.183594 26.8125 72.839844 26.40625 71.5 26.40625 C 71.5 23.726562 71.5 21.042969 71.5 18.28125 Z M 71.5 18.28125 "/>
<path style=" stroke:none;fill-rule:nonzero;fill:rgb(61.56863%,82.352942%,98.823529%);fill-opacity:1;" d="M 35.34375 18.28125 C 35.34375 20.960938 35.34375 23.644531 35.34375 26.40625 C 32.296875 26.40625 32.296875 26.40625 31.28125 25.59375 C 30.714844 24.53125 30.800781 23.429688 30.796875 22.253906 C 30.792969 22.046875 30.789062 21.839844 30.785156 21.625 C 30.777344 20.382812 30.828125 19.613281 31.6875 18.6875 C 32.5 18.28125 32.5 18.28125 35.34375 18.28125 Z M 35.34375 18.28125 "/>
<path style=" stroke:none;fill-rule:nonzero;fill:rgb(91.764706%,94.509804%,98.039216%);fill-opacity:1;" d="M 45.296875 47.328125 C 45.789062 47.691406 45.789062 47.691406 46.261719 48.152344 C 47.109375 48.957031 47.980469 49.695312 48.898438 50.417969 C 49.46875 50.867188 50.023438 51.328125 50.578125 51.796875 C 49.839844 52.605469 48.886719 53.050781 47.9375 53.574219 C 47.660156 53.734375 47.660156 53.734375 47.375 53.894531 C 47.195312 53.992188 47.015625 54.089844 46.832031 54.191406 C 46.589844 54.328125 46.589844 54.328125 46.339844 54.46875 C 45.90625 54.640625 45.90625 54.640625 45.296875 54.4375 C 44.996094 53.949219 44.996094 53.949219 44.679688 53.304688 C 44.566406 53.074219 44.453125 52.839844 44.335938 52.601562 C 44.214844 52.355469 44.097656 52.109375 43.976562 51.859375 C 43.859375 51.617188 43.738281 51.375 43.617188 51.128906 C 43.398438 50.679688 43.175781 50.226562 42.957031 49.777344 C 42.660156 49.160156 42.355469 48.550781 42.046875 47.9375 C 42.359375 47.792969 42.671875 47.65625 42.984375 47.519531 C 43.160156 47.441406 43.335938 47.363281 43.515625 47.28125 C 44.207031 47.089844 44.605469 47.125 45.296875 47.328125 Z M 45.296875 47.328125 "/>
<path style=" stroke:none;fill-rule:nonzero;fill:rgb(91.764706%,94.509804%,98.039216%);fill-opacity:1;" d="M 63.144531 47.351562 C 63.285156 47.410156 63.429688 47.46875 63.578125 47.53125 C 63.761719 47.605469 63.949219 47.679688 64.140625 47.753906 C 64.289062 47.816406 64.4375 47.875 64.59375 47.9375 C 63.539062 50.234375 62.441406 52.472656 61.140625 54.640625 C 59.953125 54.316406 58.964844 53.714844 57.914062 53.09375 C 57.738281 52.988281 57.558594 52.882812 57.375 52.773438 C 56.9375 52.515625 56.5 52.257812 56.0625 52 C 57.167969 50.867188 58.367188 49.855469 59.582031 48.839844 C 59.875 48.585938 60.164062 48.324219 60.449219 48.058594 C 61.390625 47.222656 61.917969 46.953125 63.144531 47.351562 Z M 63.144531 47.351562 "/>
<path style=" stroke:none;fill-rule:nonzero;fill:rgb(89.411765%,58.823532%,33.725491%);fill-opacity:1;" d="M 59.71875 42.046875 C 59.851562 42.046875 59.988281 42.046875 60.125 42.046875 C 60.265625 42.964844 60.316406 43.777344 60.125 44.6875 C 59.480469 45.453125 58.746094 46 57.890625 46.515625 C 57.824219 46.515625 57.757812 46.515625 57.6875 46.515625 C 57.6875 45.980469 57.6875 45.441406 57.6875 44.890625 C 57.472656 44.988281 57.261719 45.082031 57.039062 45.183594 C 54.488281 46.332031 51.171875 45.753906 48.648438 44.835938 C 47.011719 44.167969 47.011719 44.167969 46.71875 43.875 C 46.691406 43.332031 46.710938 42.792969 46.71875 42.25 C 46.957031 42.332031 47.195312 42.417969 47.441406 42.503906 C 47.808594 42.625 48.179688 42.742188 48.546875 42.859375 C 48.777344 42.933594 49.003906 43.003906 49.238281 43.082031 C 52.878906 44.15625 56.046875 43.632812 59.515625 42.25 C 59.582031 42.183594 59.648438 42.117188 59.71875 42.046875 Z M 59.71875 42.046875 "/>
<path style=" stroke:none;fill-rule:nonzero;fill:rgb(87.450981%,21.568628%,30.19608%);fill-opacity:1;" d="M 51.1875 63.171875 C 51.894531 63.164062 52.601562 63.164062 53.308594 63.160156 C 53.609375 63.15625 53.609375 63.15625 53.917969 63.152344 C 54.109375 63.152344 54.300781 63.152344 54.5 63.152344 C 54.765625 63.152344 54.765625 63.152344 55.039062 63.148438 C 55.453125 63.171875 55.453125 63.171875 55.65625 63.375 C 55.761719 63.894531 55.855469 64.414062 55.941406 64.9375 C 55.96875 65.09375 55.996094 65.25 56.023438 65.410156 C 56.082031 65.742188 56.136719 66.074219 56.191406 66.40625 C 56.277344 66.914062 56.363281 67.421875 56.453125 67.929688 C 56.507812 68.253906 56.5625 68.574219 56.617188 68.898438 C 56.640625 69.050781 56.667969 69.203125 56.695312 69.359375 C 56.875 70.4375 56.875 70.4375 56.875 70.890625 C 56.339844 70.890625 55.800781 70.890625 55.25 70.890625 C 55.214844 70.683594 55.214844 70.683594 55.183594 70.46875 C 55.078125 69.832031 54.972656 69.191406 54.867188 68.554688 C 54.832031 68.335938 54.796875 68.117188 54.761719 67.890625 C 54.566406 66.707031 54.34375 65.550781 54.03125 64.390625 C 53.027344 64.390625 52.019531 64.390625 50.984375 64.390625 C 51.050781 63.988281 51.117188 63.585938 51.1875 63.171875 Z M 51.1875 63.171875 "/>
<path style=" stroke:none;fill-rule:nonzero;fill:rgb(87.450981%,21.568628%,30.19608%);fill-opacity:1;" d="M 54.03125 54.234375 C 54.640625 54.523438 55.230469 54.839844 55.820312 55.160156 C 55.980469 55.246094 56.140625 55.332031 56.304688 55.421875 C 56.699219 55.632812 57.09375 55.847656 57.484375 56.0625 C 57.375 56.839844 57.179688 57.292969 56.671875 57.890625 C 56.492188 57.777344 56.3125 57.660156 56.128906 57.542969 C 55.890625 57.390625 55.652344 57.242188 55.414062 57.089844 C 55.296875 57.015625 55.179688 56.9375 55.058594 56.859375 C 54.101562 56.246094 54.101562 56.246094 53.015625 56.0625 C 52.449219 56.308594 51.945312 56.628906 51.429688 56.964844 C 51.289062 57.050781 51.148438 57.140625 51.003906 57.230469 C 50.65625 57.449219 50.3125 57.667969 49.96875 57.890625 C 49.609375 57.347656 49.382812 56.871094 49.15625 56.265625 C 49.570312 56.007812 49.984375 55.75 50.398438 55.492188 C 50.515625 55.417969 50.632812 55.347656 50.75 55.273438 C 53.019531 53.867188 53.019531 53.867188 54.03125 54.234375 Z M 54.03125 54.234375 "/>
<path style=" stroke:none;fill-rule:nonzero;fill:rgb(83.529413%,91.764706%,98.039216%);fill-opacity:1;" d="M 63.128906 47.359375 C 63.621094 47.546875 64.105469 47.742188 64.59375 47.9375 C 64.191406 48.808594 63.789062 49.679688 63.375 50.578125 C 62.445312 50.390625 61.699219 50.121094 60.835938 49.753906 C 60.328125 49.5625 59.84375 49.449219 59.3125 49.359375 C 59.542969 49.121094 59.777344 48.882812 60.015625 48.652344 C 60.230469 48.4375 60.441406 48.21875 60.648438 47.992188 C 61.492188 47.132812 61.976562 47.011719 63.128906 47.359375 Z M 63.128906 47.359375 "/>
<path style=" stroke:none;fill-rule:nonzero;fill:rgb(60.000002%,80.392158%,96.078432%);fill-opacity:1;" d="M 37.375 83.484375 C 39.359375 83.394531 39.359375 83.394531 40.21875 84.09375 C 40.507812 84.671875 40.484375 85.078125 40.421875 85.71875 C 40.15625 86.203125 40.15625 86.203125 39.609375 86.53125 C 38.851562 86.597656 38.140625 86.566406 37.375 86.53125 C 37.375 85.527344 37.375 84.519531 37.375 83.484375 Z M 37.375 83.484375 "/>
<path style=" stroke:none;fill-rule:nonzero;fill:rgb(60.392159%,80.392158%,96.470588%);fill-opacity:1;" d="M 49.765625 83.484375 C 51.5625 83.347656 51.5625 83.347656 52.328125 83.902344 C 52.8125 84.5 52.8125 84.5 52.835938 85.234375 C 52.585938 85.992188 52.46875 86.144531 51.796875 86.53125 C 51.273438 86.589844 51.273438 86.589844 50.730469 86.570312 C 50.410156 86.558594 50.09375 86.542969 49.765625 86.53125 C 49.765625 85.527344 49.765625 84.519531 49.765625 83.484375 Z M 49.765625 83.484375 "/>
<path style=" stroke:none;fill-rule:nonzero;fill:rgb(59.607846%,79.607844%,95.294118%);fill-opacity:1;" d="M 79.21875 83.484375 C 80.871094 83.359375 80.871094 83.359375 81.679688 83.929688 C 82.0625 84.5 82.0625 84.5 82.074219 85.03125 C 81.800781 85.644531 81.660156 85.835938 81.046875 86.125 C 80.429688 86.175781 79.839844 86.152344 79.21875 86.125 C 79.21875 85.253906 79.21875 84.382812 79.21875 83.484375 Z M 79.21875 83.484375 "/>
<path style=" stroke:none;fill-rule:nonzero;fill:rgb(46.27451%,65.490198%,81.960785%);fill-opacity:1;" d="M 35.140625 18.28125 C 35.207031 18.28125 35.273438 18.28125 35.34375 18.28125 C 35.34375 20.960938 35.34375 23.644531 35.34375 26.40625 C 32.296875 26.40625 32.296875 26.40625 31.28125 25.59375 C 31.117188 25.035156 31.117188 25.035156 31.078125 24.578125 C 31.582031 24.777344 31.582031 24.777344 32.09375 24.984375 C 33.097656 25.050781 34.105469 25.117188 35.140625 25.1875 C 35.140625 22.910156 35.140625 20.628906 35.140625 18.28125 Z M 35.140625 18.28125 "/>
<path style=" stroke:none;fill-rule:nonzero;fill:rgb(51.764709%,73.725492%,92.941177%);fill-opacity:1;" d="M 75.359375 24.78125 C 75.558594 24.847656 75.761719 24.914062 75.96875 24.984375 C 75.03125 26.179688 75.03125 26.179688 74.34375 26.40625 C 73.855469 26.421875 73.371094 26.421875 72.882812 26.417969 C 72.625 26.417969 72.367188 26.414062 72.101562 26.414062 C 71.804688 26.410156 71.804688 26.410156 71.5 26.40625 C 71.5 26.003906 71.5 25.601562 71.5 25.1875 C 71.867188 25.167969 71.867188 25.167969 72.242188 25.148438 C 72.5625 25.132812 72.882812 25.117188 73.203125 25.097656 C 73.363281 25.089844 73.523438 25.082031 73.691406 25.074219 C 74.550781 25.046875 74.550781 25.046875 75.359375 24.78125 Z M 75.359375 24.78125 "/>
<path style=" stroke:none;fill-rule:nonzero;fill:rgb(92.156863%,63.529414%,40.784314%);fill-opacity:1;" d="M 58.703125 39.203125 C 57.390625 40.253906 55.890625 40.707031 54.234375 40.828125 C 55.597656 39.410156 56.738281 39.039062 58.703125 39.203125 Z M 58.703125 39.203125 "/>
</g>
</svg>
