<?xml version="1.0" encoding="UTF-8"?>
<svg xmlns="http://www.w3.org/2000/svg" xmlns:xlink="http://www.w3.org/1999/xlink" width="94px" height="94px" viewBox="0 0 94 94" version="1.1">
<g id="surface1">
<path style=" stroke:none;fill-rule:nonzero;fill:rgb(24.313726%,30.980393%,32.941177%);fill-opacity:1;" d="M 78.925781 1.605469 C 79.1875 1.65625 79.449219 1.707031 79.710938 1.761719 C 80.257812 1.871094 80.808594 1.980469 81.355469 2.089844 C 82.054688 2.234375 82.753906 2.371094 83.453125 2.507812 C 83.992188 2.617188 84.535156 2.726562 85.074219 2.835938 C 85.332031 2.886719 85.589844 2.9375 85.847656 2.988281 C 86.210938 3.058594 86.570312 3.132812 86.929688 3.207031 C 87.136719 3.246094 87.339844 3.289062 87.550781 3.332031 C 88.792969 3.671875 89.667969 4.21875 90.328125 5.324219 C 90.582031 6.042969 90.71875 6.769531 90.855469 7.515625 C 90.898438 7.734375 90.941406 7.953125 90.984375 8.175781 C 91.082031 8.664062 91.175781 9.152344 91.269531 9.640625 C 91.445312 10.554688 91.636719 11.464844 91.824219 12.378906 C 91.929688 12.875 92.03125 13.367188 92.132812 13.863281 C 92.199219 14.1875 92.265625 14.515625 92.332031 14.839844 C 92.429688 15.300781 92.523438 15.761719 92.617188 16.222656 C 92.644531 16.355469 92.671875 16.492188 92.703125 16.632812 C 92.96875 17.976562 93.136719 19.300781 92.441406 20.535156 C 91.960938 21.21875 91.386719 21.816406 90.8125 22.429688 C 90.363281 22.910156 89.949219 23.402344 89.535156 23.914062 C 88.867188 24.738281 88.179688 25.546875 87.484375 26.34375 C 86.796875 27.132812 86.121094 27.921875 85.460938 28.734375 C 84.707031 29.667969 83.921875 30.570312 83.128906 31.476562 C 82.550781 32.144531 81.980469 32.816406 81.421875 33.507812 C 80.667969 34.441406 79.882812 35.34375 79.089844 36.25 C 78.511719 36.917969 77.941406 37.589844 77.382812 38.28125 C 76.628906 39.214844 75.84375 40.117188 75.050781 41.023438 C 74.472656 41.691406 73.902344 42.363281 73.34375 43.054688 C 72.589844 43.988281 71.804688 44.890625 71.011719 45.796875 C 70.433594 46.464844 69.863281 47.136719 69.304688 47.828125 C 68.550781 48.761719 67.765625 49.664062 66.972656 50.570312 C 66.394531 51.238281 65.824219 51.910156 65.265625 52.597656 C 64.511719 53.535156 63.726562 54.4375 62.933594 55.34375 C 62.355469 56.011719 61.785156 56.683594 61.226562 57.371094 C 60.472656 58.308594 59.6875 59.210938 58.894531 60.117188 C 58.316406 60.785156 57.746094 61.457031 57.1875 62.144531 C 56.433594 63.078125 55.648438 63.984375 54.859375 64.886719 C 54.253906 65.585938 53.660156 66.292969 53.082031 67.011719 C 50.902344 69.671875 46.664062 72.875 43.148438 73.296875 C 41.902344 73.339844 41 73.054688 40.054688 72.226562 C 39.789062 71.964844 39.539062 71.691406 39.289062 71.417969 C 38.449219 71.777344 37.777344 72.382812 37.078125 72.953125 C 36.210938 73.640625 35.382812 74.09375 34.238281 73.964844 C 32.859375 73.765625 32.074219 72.867188 31.027344 71.96875 C 25.394531 77.601562 19.757812 83.238281 13.953125 89.042969 C 14.042969 89.316406 14.042969 89.316406 14.136719 89.59375 C 14.238281 90.234375 14.265625 90.679688 13.902344 91.238281 C 13.566406 91.625 13.214844 91.988281 12.851562 92.347656 C 12.652344 92.550781 12.652344 92.550781 12.453125 92.761719 C 11.289062 93.949219 11.289062 93.949219 10.375 94.113281 C 9.589844 94.105469 9.25 93.804688 8.6875 93.277344 C 8.445312 93.050781 8.445312 93.050781 8.199219 92.820312 C 7.441406 92.085938 6.683594 91.347656 5.9375 90.597656 C 5.777344 90.441406 5.617188 90.28125 5.453125 90.117188 C 5.121094 89.78125 4.789062 89.449219 4.453125 89.117188 C 3.945312 88.605469 3.433594 88.09375 2.921875 87.582031 C 2.59375 87.257812 2.269531 86.929688 1.945312 86.605469 C 1.792969 86.453125 1.640625 86.300781 1.480469 86.144531 C 1.339844 86 1.199219 85.859375 1.054688 85.714844 C 0.867188 85.527344 0.867188 85.527344 0.679688 85.335938 C 0.0976562 84.714844 -0.117188 84.246094 -0.09375 83.382812 C 0.09375 82.578125 0.710938 82.074219 1.285156 81.515625 C 1.417969 81.378906 1.546875 81.242188 1.683594 81.101562 C 2.886719 79.871094 2.886719 79.871094 3.753906 79.839844 C 4.40625 79.863281 4.40625 79.863281 4.957031 80.046875 C 10.589844 74.414062 16.226562 68.777344 22.03125 62.972656 C 21.667969 62.546875 21.304688 62.125 20.929688 61.6875 C 20.207031 60.671875 19.910156 60.007812 20.011719 58.75 C 20.550781 57.308594 21.582031 56.222656 22.582031 55.078125 C 22.335938 54.542969 22.0625 54.144531 21.664062 53.710938 C 20.898438 52.832031 20.675781 52.160156 20.683594 50.96875 C 20.804688 50.03125 21.261719 49.230469 21.6875 48.398438 C 21.816406 48.132812 21.816406 48.132812 21.949219 47.863281 C 23.804688 44.128906 25.988281 41.578125 29.214844 38.984375 C 29.820312 38.492188 30.414062 37.984375 31.003906 37.476562 C 32.132812 36.503906 33.265625 35.542969 34.402344 34.582031 C 34.898438 34.164062 35.394531 33.742188 35.890625 33.320312 C 36.089844 33.152344 36.289062 32.984375 36.488281 32.816406 C 36.585938 32.734375 36.6875 32.652344 36.789062 32.566406 C 46.632812 24.234375 56.476562 15.902344 68.710938 5.554688 C 68.808594 5.46875 68.90625 5.386719 69.007812 5.300781 C 69.207031 5.132812 69.402344 4.964844 69.601562 4.800781 C 70.117188 4.363281 70.628906 3.929688 71.140625 3.488281 C 71.246094 3.398438 71.351562 3.308594 71.460938 3.214844 C 71.664062 3.042969 71.863281 2.871094 72.0625 2.699219 C 74.375 0.726562 76.09375 1.03125 78.925781 1.605469 Z M 78.925781 1.605469 "/>
<path style=" stroke:none;fill-rule:nonzero;fill:rgb(99.607843%,85.09804%,17.254902%);fill-opacity:1;" d="M 80.34375 8.296875 C 80.5625 8.332031 80.777344 8.367188 81 8.40625 C 82.515625 8.683594 83.546875 9.089844 84.699219 10.109375 C 85.183594 10.96875 85.320312 11.886719 85.496094 12.851562 C 85.535156 13.050781 85.574219 13.25 85.617188 13.453125 C 85.6875 13.820312 85.757812 14.191406 85.828125 14.5625 C 85.890625 14.890625 85.957031 15.21875 86.023438 15.550781 C 86.109375 16 86.144531 16.421875 86.152344 16.878906 C 86.15625 17.027344 86.160156 17.179688 86.164062 17.332031 C 86.015625 18.53125 85.226562 19.34375 84.453125 20.207031 C 84.238281 20.453125 84.023438 20.695312 83.804688 20.941406 C 83.699219 21.0625 83.589844 21.183594 83.480469 21.308594 C 83.023438 21.828125 82.578125 22.351562 82.136719 22.878906 C 82.054688 22.976562 81.972656 23.074219 81.886719 23.175781 C 81.722656 23.367188 81.558594 23.5625 81.394531 23.757812 C 80.976562 24.253906 80.558594 24.75 80.140625 25.242188 C 79.96875 25.441406 79.800781 25.640625 79.632812 25.839844 C 68.023438 39.5625 68.023438 39.5625 56.410156 53.289062 C 56.324219 53.386719 56.242188 53.484375 56.15625 53.585938 C 55.988281 53.785156 55.820312 53.984375 55.652344 54.179688 C 55.132812 54.796875 54.609375 55.414062 54.089844 56.03125 C 53.835938 56.332031 53.582031 56.632812 53.324219 56.933594 C 53.054688 57.253906 52.785156 57.574219 52.515625 57.894531 C 51.675781 58.890625 51.675781 58.890625 50.808594 59.023438 C 50.011719 58.917969 49.828125 58.703125 49.335938 58.09375 C 48.644531 57.125 48.070312 56.078125 47.480469 55.042969 C 45.460938 51.515625 43.785156 49.339844 40.242188 47.285156 C 35.703125 44.652344 35.703125 44.652344 35.066406 43.695312 C 34.957031 42.988281 35.011719 42.679688 35.398438 42.078125 C 36.007812 41.421875 36.714844 40.878906 37.410156 40.320312 C 38.082031 39.78125 38.730469 39.214844 39.382812 38.648438 C 40.324219 37.824219 41.277344 37.023438 42.25 36.238281 C 42.894531 35.703125 43.523438 35.15625 44.15625 34.609375 C 45.097656 33.785156 46.050781 32.984375 47.023438 32.199219 C 47.667969 31.664062 48.296875 31.117188 48.929688 30.570312 C 49.871094 29.746094 50.824219 28.945312 51.796875 28.160156 C 52.441406 27.625 53.070312 27.078125 53.703125 26.53125 C 54.644531 25.707031 55.597656 24.90625 56.570312 24.121094 C 57.214844 23.585938 57.84375 23.039062 58.476562 22.492188 C 59.417969 21.667969 60.371094 20.867188 61.34375 20.082031 C 61.988281 19.546875 62.617188 19 63.25 18.453125 C 64.191406 17.628906 65.144531 16.828125 66.117188 16.042969 C 66.761719 15.507812 67.390625 14.960938 68.023438 14.414062 C 68.964844 13.589844 69.917969 12.789062 70.886719 12.003906 C 71.546875 11.460938 72.1875 10.898438 72.828125 10.339844 C 75.507812 8 76.8125 7.644531 80.34375 8.296875 Z M 80.34375 8.296875 "/>
<path style=" stroke:none;fill-rule:nonzero;fill:rgb(18.82353%,23.921569%,25.882354%);fill-opacity:1;" d="M 22.417969 63.003906 C 22.917969 63.222656 23.226562 63.542969 23.609375 63.925781 C 23.859375 64.167969 23.859375 64.167969 24.113281 64.417969 C 24.292969 64.597656 24.472656 64.777344 24.652344 64.957031 C 24.835938 65.140625 25.019531 65.320312 25.203125 65.503906 C 25.589844 65.890625 25.976562 66.273438 26.359375 66.660156 C 26.855469 67.152344 27.351562 67.644531 27.847656 68.136719 C 28.230469 68.511719 28.609375 68.890625 28.988281 69.273438 C 29.171875 69.453125 29.355469 69.636719 29.539062 69.816406 C 29.796875 70.066406 30.046875 70.324219 30.300781 70.578125 C 30.445312 70.722656 30.589844 70.867188 30.742188 71.015625 C 31.027344 71.417969 31.027344 71.417969 30.996094 71.765625 C 30.804688 72.253906 30.550781 72.511719 30.179688 72.882812 C 29.96875 73.097656 29.96875 73.097656 29.75 73.316406 C 29.511719 73.546875 29.511719 73.546875 29.273438 73.785156 C 29.109375 73.949219 28.941406 74.117188 28.773438 74.285156 C 28.320312 74.738281 27.867188 75.1875 27.414062 75.636719 C 26.941406 76.109375 26.46875 76.578125 25.996094 77.050781 C 25.101562 77.945312 24.203125 78.835938 23.308594 79.726562 C 22.285156 80.742188 21.265625 81.757812 20.25 82.777344 C 18.152344 84.867188 16.054688 86.957031 13.953125 89.042969 C 14.015625 89.226562 14.074219 89.40625 14.136719 89.59375 C 14.238281 90.234375 14.265625 90.679688 13.902344 91.238281 C 13.566406 91.625 13.214844 91.988281 12.851562 92.347656 C 12.652344 92.550781 12.652344 92.550781 12.453125 92.761719 C 11.289062 93.949219 11.289062 93.949219 10.375 94.113281 C 9.589844 94.105469 9.25 93.804688 8.6875 93.277344 C 8.445312 93.050781 8.445312 93.050781 8.199219 92.820312 C 7.441406 92.085938 6.683594 91.347656 5.9375 90.597656 C 5.699219 90.359375 5.699219 90.359375 5.453125 90.117188 C 5.121094 89.78125 4.789062 89.449219 4.453125 89.117188 C 3.945312 88.605469 3.433594 88.09375 2.921875 87.582031 C 2.59375 87.257812 2.269531 86.929688 1.945312 86.605469 C 1.714844 86.378906 1.714844 86.378906 1.480469 86.144531 C 1.269531 85.929688 1.269531 85.929688 1.054688 85.714844 C 0.929688 85.589844 0.804688 85.464844 0.679688 85.335938 C 0.0976562 84.714844 -0.117188 84.246094 -0.09375 83.382812 C 0.09375 82.578125 0.710938 82.074219 1.285156 81.515625 C 1.417969 81.378906 1.546875 81.242188 1.683594 81.101562 C 2.886719 79.871094 2.886719 79.871094 3.753906 79.839844 C 4.40625 79.863281 4.40625 79.863281 4.957031 80.046875 C 5.042969 79.957031 5.132812 79.871094 5.222656 79.78125 C 7.34375 77.636719 9.46875 75.496094 11.597656 73.359375 C 12.625 72.324219 13.65625 71.289062 14.679688 70.253906 C 15.574219 69.351562 16.472656 68.449219 17.367188 67.550781 C 17.84375 67.070312 18.320312 66.59375 18.792969 66.117188 C 19.320312 65.582031 19.847656 65.050781 20.378906 64.519531 C 20.539062 64.359375 20.695312 64.199219 20.855469 64.035156 C 21 63.890625 21.144531 63.746094 21.292969 63.597656 C 21.421875 63.472656 21.546875 63.347656 21.675781 63.214844 C 22.03125 62.972656 22.03125 62.972656 22.417969 63.003906 Z M 22.417969 63.003906 "/>
<path style=" stroke:none;fill-rule:nonzero;fill:rgb(99.607843%,85.09804%,17.254902%);fill-opacity:1;" d="M 31.417969 49.007812 C 31.53125 49.070312 31.640625 49.132812 31.757812 49.195312 C 33.089844 49.941406 34.390625 50.734375 35.699219 51.519531 C 35.808594 51.589844 35.921875 51.65625 36.035156 51.726562 C 38.964844 53.492188 40.605469 55.082031 42.296875 58.039062 C 42.558594 58.5 42.824219 58.957031 43.089844 59.417969 C 43.15625 59.53125 43.222656 59.640625 43.289062 59.757812 C 43.859375 60.746094 44.457031 61.710938 45.0625 62.675781 C 45.535156 63.472656 45.605469 64.074219 45.53125 64.992188 C 45.136719 66.097656 44.53125 66.808594 43.625 67.527344 C 43.515625 67.621094 43.402344 67.714844 43.289062 67.808594 C 42.382812 68.554688 41.457031 69.269531 40.53125 69.984375 C 39.984375 70.414062 39.46875 70.84375 38.992188 71.347656 C 37.863281 72.53125 36.332031 73.925781 34.636719 74.011719 C 32.730469 73.796875 31.636719 72.503906 30.445312 71.113281 C 29.699219 70.257812 28.90625 69.453125 28.101562 68.652344 C 27.949219 68.5 27.792969 68.34375 27.636719 68.1875 C 27.3125 67.863281 26.992188 67.539062 26.667969 67.21875 C 26.175781 66.726562 25.683594 66.234375 25.195312 65.742188 C 24.878906 65.425781 24.5625 65.113281 24.246094 64.796875 C 24.101562 64.652344 23.957031 64.503906 23.808594 64.355469 C 23.035156 63.585938 22.25 62.847656 21.417969 62.140625 C 20.539062 61.363281 20.074219 60.59375 19.941406 59.425781 C 20.179688 57.085938 22.519531 55.160156 24.03125 53.496094 C 24.832031 52.589844 25.566406 51.628906 26.3125 50.675781 C 26.457031 50.496094 26.601562 50.316406 26.746094 50.132812 C 26.941406 49.886719 26.941406 49.886719 27.140625 49.632812 C 28.371094 48.304688 29.855469 48.148438 31.417969 49.007812 Z M 31.417969 49.007812 "/>
<path style=" stroke:none;fill-rule:nonzero;fill:rgb(18.82353%,23.921569%,25.882354%);fill-opacity:1;" d="M 84.453125 2.9375 C 88.539062 3.203125 88.539062 3.203125 89.839844 4.5625 C 90.804688 5.8125 90.929688 7.816406 91.230469 9.324219 C 91.28125 9.5625 91.328125 9.804688 91.375 10.046875 C 91.476562 10.546875 91.578125 11.046875 91.679688 11.546875 C 91.804688 12.183594 91.933594 12.820312 92.066406 13.460938 C 92.167969 13.953125 92.265625 14.449219 92.363281 14.945312 C 92.433594 15.292969 92.503906 15.640625 92.578125 15.988281 C 93.207031 19.175781 93.207031 19.175781 92.441406 20.535156 C 91.960938 21.21875 91.386719 21.816406 90.8125 22.429688 C 90.363281 22.910156 89.949219 23.402344 89.535156 23.914062 C 88.867188 24.738281 88.179688 25.546875 87.484375 26.34375 C 86.796875 27.132812 86.121094 27.921875 85.460938 28.734375 C 84.707031 29.667969 83.921875 30.570312 83.128906 31.476562 C 82.550781 32.144531 81.980469 32.816406 81.421875 33.507812 C 80.667969 34.441406 79.882812 35.34375 79.089844 36.25 C 78.511719 36.917969 77.941406 37.589844 77.382812 38.28125 C 76.628906 39.214844 75.84375 40.117188 75.050781 41.023438 C 74.472656 41.691406 73.902344 42.363281 73.34375 43.054688 C 72.589844 43.988281 71.804688 44.890625 71.011719 45.796875 C 70.433594 46.464844 69.863281 47.136719 69.304688 47.828125 C 68.550781 48.761719 67.765625 49.664062 66.972656 50.570312 C 66.394531 51.238281 65.824219 51.910156 65.265625 52.601562 C 64.511719 53.535156 63.726562 54.4375 62.933594 55.34375 C 62.355469 56.011719 61.785156 56.683594 61.226562 57.375 C 60.472656 58.308594 59.6875 59.210938 58.894531 60.117188 C 58.316406 60.785156 57.746094 61.457031 57.1875 62.148438 C 56.433594 63.078125 55.648438 63.984375 54.859375 64.886719 C 54.253906 65.585938 53.660156 66.292969 53.082031 67.011719 C 50.902344 69.671875 46.664062 72.875 43.148438 73.296875 C 42.027344 73.335938 41.359375 73.082031 40.390625 72.519531 C 40.855469 72.207031 41.289062 71.976562 41.792969 71.738281 C 44.964844 70.222656 47.242188 68.597656 49.472656 65.886719 C 49.820312 65.460938 50.179688 65.039062 50.535156 64.621094 C 50.785156 64.328125 51.035156 64.035156 51.28125 63.738281 C 51.78125 63.148438 52.28125 62.554688 52.78125 61.960938 C 52.953125 61.765625 53.121094 61.566406 53.289062 61.367188 C 61.617188 51.519531 69.949219 41.675781 82.824219 26.460938 C 82.992188 26.261719 83.160156 26.0625 83.328125 25.863281 C 83.746094 25.367188 84.167969 24.871094 84.589844 24.378906 C 85.488281 23.328125 86.371094 22.265625 87.230469 21.183594 C 87.359375 21.019531 87.359375 21.019531 87.492188 20.851562 C 88.285156 19.84375 88.402344 19.066406 88.308594 17.808594 C 88.160156 16.824219 87.964844 15.851562 87.765625 14.875 C 87.710938 14.589844 87.652344 14.308594 87.597656 14.023438 C 87.480469 13.433594 87.359375 12.84375 87.242188 12.253906 C 87.089844 11.5 86.9375 10.742188 86.789062 9.988281 C 86.671875 9.40625 86.554688 8.820312 86.4375 8.238281 C 86.382812 7.960938 86.328125 7.679688 86.273438 7.402344 C 86.195312 7.011719 86.117188 6.625 86.035156 6.234375 C 85.992188 6.015625 85.949219 5.792969 85.902344 5.566406 C 85.621094 4.527344 85.148438 3.753906 84.453125 2.9375 Z M 84.453125 2.9375 "/>
<path style=" stroke:none;fill-rule:nonzero;fill:rgb(98.431373%,74.509805%,0%);fill-opacity:1;" d="M 79.128906 8.261719 C 81.148438 8.390625 83.117188 8.640625 84.632812 10.074219 C 85.191406 10.9375 85.3125 11.851562 85.496094 12.851562 C 85.535156 13.050781 85.574219 13.25 85.617188 13.453125 C 85.6875 13.820312 85.757812 14.191406 85.828125 14.5625 C 85.890625 14.890625 85.957031 15.21875 86.023438 15.550781 C 86.109375 16 86.144531 16.421875 86.152344 16.878906 C 86.160156 17.101562 86.160156 17.101562 86.164062 17.332031 C 86.015625 18.53125 85.226562 19.34375 84.453125 20.207031 C 84.238281 20.453125 84.023438 20.695312 83.804688 20.941406 C 83.699219 21.0625 83.589844 21.183594 83.480469 21.308594 C 83.023438 21.828125 82.578125 22.351562 82.136719 22.878906 C 82.054688 22.976562 81.972656 23.074219 81.886719 23.175781 C 81.722656 23.367188 81.558594 23.5625 81.394531 23.757812 C 80.976562 24.253906 80.558594 24.75 80.140625 25.242188 C 79.96875 25.441406 79.800781 25.640625 79.632812 25.839844 C 68.023438 39.5625 68.023438 39.5625 56.410156 53.289062 C 56.324219 53.386719 56.242188 53.484375 56.15625 53.585938 C 55.988281 53.785156 55.820312 53.984375 55.652344 54.179688 C 55.132812 54.796875 54.609375 55.414062 54.089844 56.03125 C 53.835938 56.332031 53.582031 56.632812 53.324219 56.933594 C 53.054688 57.253906 52.785156 57.574219 52.515625 57.894531 C 51.675781 58.890625 51.675781 58.890625 50.808594 59.023438 C 49.953125 58.910156 49.753906 58.652344 49.234375 58 C 48.84375 57.355469 48.84375 57.355469 48.835938 56.914062 C 49.121094 56.535156 49.398438 56.226562 49.730469 55.894531 C 49.921875 55.695312 50.109375 55.496094 50.296875 55.300781 C 50.441406 55.152344 50.441406 55.152344 50.585938 55 C 50.96875 54.589844 51.320312 54.160156 51.671875 53.722656 C 52.296875 52.949219 52.9375 52.183594 53.585938 51.429688 C 54.304688 50.59375 55.019531 49.757812 55.730469 48.917969 C 55.855469 48.769531 55.855469 48.769531 55.980469 48.621094 C 56.148438 48.421875 56.316406 48.226562 56.480469 48.03125 C 56.898438 47.535156 57.320312 47.039062 57.742188 46.539062 C 57.910156 46.34375 58.078125 46.144531 58.246094 45.945312 C 77.429688 23.269531 77.429688 23.269531 77.683594 22.972656 C 77.851562 22.773438 78.019531 22.574219 78.183594 22.378906 C 78.617188 21.863281 79.054688 21.351562 79.496094 20.84375 C 79.585938 20.738281 79.675781 20.636719 79.769531 20.527344 C 79.941406 20.328125 80.113281 20.128906 80.285156 19.933594 C 81.246094 18.8125 81.820312 17.996094 81.757812 16.511719 C 81.652344 15.515625 81.46875 14.539062 81.269531 13.5625 C 81.195312 13.195312 81.125 12.828125 81.054688 12.460938 C 80.730469 10.855469 80.425781 9.375 79.128906 8.261719 Z M 79.128906 8.261719 "/>
<path style=" stroke:none;fill-rule:nonzero;fill:rgb(24.313726%,30.980393%,33.333334%);fill-opacity:1;" d="M 8.078125 76.925781 C 9.523438 78.164062 9.523438 78.164062 10.015625 78.65625 C 10.125 78.769531 10.234375 78.878906 10.347656 78.992188 C 10.460938 79.105469 10.578125 79.222656 10.695312 79.339844 C 10.8125 79.460938 10.933594 79.582031 11.058594 79.707031 C 11.4375 80.085938 11.816406 80.46875 12.199219 80.851562 C 12.457031 81.109375 12.714844 81.371094 12.976562 81.632812 C 13.609375 82.265625 14.238281 82.898438 14.871094 83.535156 C 14.699219 83.738281 14.527344 83.941406 14.355469 84.140625 C 14.257812 84.253906 14.164062 84.367188 14.0625 84.484375 C 13.628906 84.980469 13.164062 85.445312 12.691406 85.910156 C 12.597656 86 12.507812 86.089844 12.414062 86.183594 C 12.191406 86.402344 11.972656 86.621094 11.75 86.839844 C 12 87.410156 12.289062 87.785156 12.738281 88.21875 C 12.90625 88.382812 12.90625 88.382812 13.082031 88.554688 C 13.328125 88.789062 13.585938 89.011719 13.851562 89.226562 C 14.136719 89.59375 14.136719 89.59375 14.261719 90.191406 C 14.082031 91.179688 13.550781 91.652344 12.851562 92.347656 C 12.71875 92.484375 12.589844 92.621094 12.453125 92.761719 C 11.289062 93.949219 11.289062 93.949219 10.375 94.113281 C 9.589844 94.105469 9.25 93.804688 8.6875 93.277344 C 8.527344 93.125 8.367188 92.976562 8.199219 92.820312 C 7.441406 92.085938 6.683594 91.347656 5.9375 90.597656 C 5.699219 90.359375 5.699219 90.359375 5.453125 90.117188 C 5.121094 89.78125 4.789062 89.449219 4.453125 89.117188 C 3.945312 88.605469 3.433594 88.09375 2.921875 87.582031 C 2.59375 87.257812 2.269531 86.929688 1.945312 86.605469 C 1.792969 86.453125 1.640625 86.300781 1.480469 86.144531 C 1.269531 85.929688 1.269531 85.929688 1.054688 85.714844 C 0.929688 85.589844 0.804688 85.464844 0.679688 85.335938 C 0.0976562 84.714844 -0.117188 84.246094 -0.09375 83.382812 C 0.09375 82.578125 0.710938 82.074219 1.285156 81.515625 C 1.417969 81.378906 1.546875 81.242188 1.683594 81.101562 C 2.886719 79.871094 2.886719 79.871094 3.753906 79.839844 C 4.40625 79.863281 4.40625 79.863281 4.957031 80.046875 C 5.988281 79.015625 7.015625 77.988281 8.078125 76.925781 Z M 8.078125 76.925781 "/>
<path style=" stroke:none;fill-rule:nonzero;fill:rgb(98.431373%,74.509805%,0.392157%);fill-opacity:1;" d="M 30.820312 48.679688 C 31.019531 48.789062 31.214844 48.898438 31.417969 49.007812 C 31.53125 49.070312 31.640625 49.132812 31.757812 49.195312 C 33.089844 49.941406 34.390625 50.734375 35.699219 51.519531 C 35.808594 51.589844 35.921875 51.65625 36.035156 51.726562 C 38.964844 53.492188 40.605469 55.082031 42.296875 58.039062 C 42.558594 58.5 42.824219 58.957031 43.089844 59.417969 C 43.15625 59.53125 43.222656 59.640625 43.289062 59.757812 C 43.859375 60.746094 44.457031 61.710938 45.0625 62.675781 C 45.535156 63.472656 45.605469 64.074219 45.53125 64.992188 C 45.136719 66.097656 44.53125 66.808594 43.625 67.527344 C 43.515625 67.621094 43.402344 67.714844 43.289062 67.808594 C 42.382812 68.554688 41.457031 69.269531 40.53125 69.984375 C 39.984375 70.414062 39.46875 70.84375 38.992188 71.347656 C 37.871094 72.527344 36.324219 73.945312 34.628906 74.003906 C 33.792969 73.898438 33.191406 73.769531 32.496094 73.253906 C 32.765625 72.59375 33.113281 72.273438 33.679688 71.84375 C 33.84375 71.714844 34.007812 71.585938 34.175781 71.457031 C 34.347656 71.320312 34.523438 71.1875 34.699219 71.050781 C 35.03125 70.78125 35.367188 70.507812 35.699219 70.234375 C 36.207031 69.816406 36.71875 69.398438 37.230469 68.984375 C 38.085938 68.292969 38.929688 67.59375 39.757812 66.875 C 39.90625 66.746094 40.054688 66.617188 40.207031 66.488281 C 40.921875 65.722656 41.066406 64.902344 41.042969 63.878906 C 40.824219 62.71875 40.113281 61.734375 39.496094 60.746094 C 39.351562 60.507812 39.207031 60.273438 39.0625 60.035156 C 38.714844 59.460938 38.363281 58.890625 38.007812 58.320312 C 37.746094 57.898438 37.492188 57.476562 37.238281 57.054688 C 35.902344 54.84375 35.902344 54.84375 33.921875 53.230469 C 33.816406 53.167969 33.707031 53.101562 33.597656 53.035156 C 33.253906 52.832031 32.910156 52.628906 32.566406 52.425781 C 32.339844 52.292969 32.113281 52.160156 31.886719 52.023438 C 31.773438 51.957031 31.664062 51.890625 31.550781 51.824219 C 31.113281 51.5625 30.675781 51.304688 30.238281 51.042969 C 29.929688 50.859375 29.621094 50.675781 29.3125 50.492188 C 29.035156 50.320312 29.035156 50.320312 28.75 50.148438 C 28.585938 50.050781 28.421875 49.953125 28.253906 49.851562 C 28.140625 49.757812 28.023438 49.664062 27.90625 49.570312 C 27.90625 49.386719 27.90625 49.207031 27.90625 49.019531 C 28.9375 48.523438 29.695312 48.230469 30.820312 48.679688 Z M 30.820312 48.679688 "/>
<path style=" stroke:none;fill-rule:nonzero;fill:rgb(19.215687%,23.921569%,25.882354%);fill-opacity:1;" d="M 33.046875 55.996094 C 33.503906 56.296875 33.871094 56.664062 34.25 57.054688 C 34.359375 57.160156 34.464844 57.265625 34.578125 57.375 C 34.804688 57.601562 35.027344 57.828125 35.25 58.058594 C 35.59375 58.40625 35.941406 58.746094 36.289062 59.085938 C 36.507812 59.308594 36.726562 59.527344 36.945312 59.75 C 37.050781 59.851562 37.152344 59.953125 37.261719 60.054688 C 37.925781 60.746094 38.164062 61.242188 38.1875 62.238281 C 37.988281 62.621094 37.988281 62.621094 37.671875 62.9375 C 37.550781 63.058594 37.433594 63.179688 37.3125 63.304688 C 37.175781 63.4375 37.042969 63.570312 36.902344 63.707031 C 36.753906 63.871094 36.605469 64.039062 36.453125 64.207031 C 36.296875 64.375 36.144531 64.542969 35.984375 64.71875 C 35.839844 64.875 35.695312 65.03125 35.546875 65.191406 C 35.066406 65.542969 35.066406 65.542969 34.457031 65.675781 C 33.472656 65.484375 33.003906 64.957031 32.3125 64.257812 C 32.085938 64.039062 32.085938 64.039062 31.855469 63.8125 C 31.363281 63.335938 30.878906 62.851562 30.394531 62.363281 C 30.230469 62.199219 30.0625 62.03125 29.890625 61.859375 C 29.730469 61.703125 29.574219 61.542969 29.410156 61.378906 C 29.265625 61.234375 29.125 61.09375 28.976562 60.945312 C 28.550781 60.488281 28.464844 60.269531 28.355469 59.648438 C 28.507812 58.582031 29.132812 58.109375 29.902344 57.394531 C 30.039062 57.261719 30.175781 57.128906 30.316406 56.992188 C 31.699219 55.667969 31.699219 55.667969 33.046875 55.996094 Z M 33.046875 55.996094 "/>
<path style=" stroke:none;fill-rule:nonzero;fill:rgb(25.098041%,31.37255%,32.941177%);fill-opacity:1;" d="M 22.386719 63.003906 C 22.839844 63.1875 23.078125 63.402344 23.421875 63.75 C 23.546875 63.875 23.671875 64 23.800781 64.128906 C 23.933594 64.265625 24.066406 64.398438 24.203125 64.539062 C 24.339844 64.679688 24.476562 64.816406 24.621094 64.957031 C 25.058594 65.402344 25.496094 65.84375 25.933594 66.289062 C 26.230469 66.589844 26.527344 66.890625 26.824219 67.1875 C 27.554688 67.921875 28.28125 68.660156 29.007812 69.398438 C 27.851562 70.761719 27.851562 70.761719 27.316406 71.292969 C 27.222656 71.386719 27.125 71.480469 27.027344 71.578125 C 26.929688 71.675781 26.835938 71.769531 26.734375 71.867188 C 26.636719 71.964844 26.535156 72.0625 26.433594 72.167969 C 26.191406 72.40625 25.945312 72.648438 25.703125 72.886719 C 24.789062 72.121094 23.929688 71.320312 23.085938 70.472656 C 22.96875 70.351562 22.847656 70.230469 22.722656 70.105469 C 22.34375 69.726562 21.964844 69.34375 21.582031 68.960938 C 21.324219 68.703125 21.066406 68.441406 20.804688 68.179688 C 20.171875 67.546875 19.542969 66.914062 18.910156 66.277344 C 19.082031 66.074219 19.253906 65.871094 19.429688 65.671875 C 19.523438 65.558594 19.621094 65.445312 19.71875 65.328125 C 20.148438 64.835938 20.589844 64.363281 21.042969 63.890625 C 21.128906 63.796875 21.214844 63.707031 21.300781 63.613281 C 21.933594 62.964844 21.933594 62.964844 22.386719 63.003906 Z M 22.386719 63.003906 "/>
<path style=" stroke:none;fill-rule:nonzero;fill:rgb(33.333334%,40.392157%,44.313726%);fill-opacity:1;" d="M 1.46875 81.332031 C 2.484375 82.179688 3.425781 83.078125 4.359375 84.015625 C 4.507812 84.164062 4.65625 84.3125 4.808594 84.464844 C 5.121094 84.773438 5.433594 85.085938 5.742188 85.398438 C 6.222656 85.878906 6.699219 86.355469 7.179688 86.832031 C 7.480469 87.136719 7.785156 87.441406 8.089844 87.742188 C 8.230469 87.886719 8.375 88.03125 8.523438 88.175781 C 8.65625 88.308594 8.785156 88.441406 8.921875 88.578125 C 9.039062 88.695312 9.15625 88.8125 9.277344 88.933594 C 9.664062 89.351562 9.730469 89.589844 9.820312 90.167969 C 9.691406 91.171875 9.148438 91.65625 8.445312 92.347656 C 7.671875 92.253906 7.316406 92.042969 6.773438 91.496094 C 6.628906 91.351562 6.488281 91.210938 6.339844 91.066406 C 6.191406 90.910156 6.039062 90.757812 5.882812 90.597656 C 5.726562 90.441406 5.570312 90.285156 5.410156 90.121094 C 5.078125 89.789062 4.75 89.457031 4.417969 89.121094 C 3.914062 88.609375 3.40625 88.097656 2.898438 87.589844 C 2.578125 87.265625 2.257812 86.941406 1.9375 86.617188 C 1.710938 86.386719 1.710938 86.386719 1.476562 86.152344 C 1.335938 86.011719 1.195312 85.867188 1.050781 85.722656 C 0.929688 85.59375 0.804688 85.46875 0.675781 85.339844 C 0.101562 84.714844 -0.109375 84.25 -0.0976562 83.390625 C 0.09375 82.59375 0.710938 82.066406 1.285156 81.515625 C 1.347656 81.453125 1.40625 81.394531 1.46875 81.332031 Z M 1.46875 81.332031 "/>
<path style=" stroke:none;fill-rule:nonzero;fill:rgb(23.921569%,30.588236%,32.941177%);fill-opacity:1;" d="M 12.484375 72.519531 C 13.769531 73.601562 14.960938 74.757812 16.152344 75.9375 C 16.402344 76.183594 16.652344 76.429688 16.902344 76.675781 C 17.269531 77.03125 17.628906 77.390625 17.992188 77.746094 C 18.105469 77.855469 18.21875 77.964844 18.335938 78.078125 C 18.644531 78.390625 18.644531 78.390625 19.09375 78.945312 C 19.011719 79.722656 18.5625 80.113281 18.027344 80.65625 C 17.867188 80.820312 17.707031 80.988281 17.542969 81.15625 C 17.074219 81.515625 17.074219 81.515625 16.714844 81.480469 C 16.28125 81.308594 16.046875 81.109375 15.71875 80.777344 C 15.597656 80.660156 15.480469 80.542969 15.359375 80.425781 C 15.234375 80.296875 15.113281 80.171875 14.984375 80.042969 C 14.855469 79.914062 14.722656 79.785156 14.589844 79.648438 C 14.316406 79.375 14.046875 79.101562 13.773438 78.828125 C 13.355469 78.40625 12.9375 77.988281 12.515625 77.570312 C 12.253906 77.304688 11.988281 77.039062 11.722656 76.773438 C 11.597656 76.644531 11.472656 76.519531 11.339844 76.390625 C 11.226562 76.273438 11.109375 76.15625 10.992188 76.035156 C 10.890625 75.933594 10.789062 75.828125 10.683594 75.722656 C 10.464844 75.457031 10.464844 75.457031 10.464844 75.089844 C 10.34375 75.027344 10.222656 74.96875 10.097656 74.90625 C 10.886719 74.117188 11.671875 73.332031 12.484375 72.519531 Z M 12.484375 72.519531 "/>
<path style=" stroke:none;fill-rule:nonzero;fill:rgb(23.921569%,30.588236%,32.941177%);fill-opacity:1;" d="M 16.707031 68.296875 C 17.265625 68.546875 17.652344 68.828125 18.082031 69.261719 C 18.203125 69.382812 18.324219 69.503906 18.449219 69.628906 C 18.578125 69.761719 18.707031 69.890625 18.839844 70.023438 C 19.039062 70.226562 19.039062 70.226562 19.242188 70.429688 C 19.667969 70.859375 20.09375 71.289062 20.515625 71.714844 C 20.804688 72.007812 21.09375 72.296875 21.382812 72.585938 C 22.089844 73.296875 22.796875 74.011719 23.5 74.722656 C 23.171875 75.429688 22.75 75.875 22.191406 76.421875 C 22.023438 76.585938 21.859375 76.75 21.6875 76.917969 C 21.558594 77.042969 21.429688 77.164062 21.296875 77.292969 C 20.382812 76.527344 19.523438 75.726562 18.679688 74.878906 C 18.5625 74.757812 18.441406 74.636719 18.316406 74.511719 C 17.9375 74.132812 17.558594 73.75 17.175781 73.367188 C 16.917969 73.109375 16.660156 72.847656 16.398438 72.585938 C 15.765625 71.953125 15.136719 71.320312 14.503906 70.683594 C 14.679688 70.476562 14.855469 70.269531 15.03125 70.0625 C 15.132812 69.949219 15.230469 69.832031 15.332031 69.714844 C 15.765625 69.214844 16.234375 68.757812 16.707031 68.296875 Z M 16.707031 68.296875 "/>
<path style=" stroke:none;fill-rule:nonzero;fill:rgb(46.27451%,83.137256%,96.078432%);fill-opacity:1;" d="M 60.953125 68.847656 C 61.757812 69.507812 62.074219 70.152344 62.328125 71.136719 C 62.363281 71.265625 62.398438 71.394531 62.4375 71.53125 C 62.511719 71.804688 62.585938 72.078125 62.65625 72.351562 C 62.765625 72.769531 62.882812 73.1875 62.996094 73.601562 C 63.070312 73.871094 63.140625 74.136719 63.210938 74.40625 C 63.246094 74.527344 63.28125 74.652344 63.316406 74.777344 C 63.527344 75.613281 63.523438 76.269531 63.339844 77.109375 C 63.03125 77.59375 62.816406 77.652344 62.261719 77.820312 C 61.546875 77.847656 61.304688 77.769531 60.769531 77.292969 C 60.238281 76.046875 59.894531 74.742188 59.542969 73.4375 C 59.484375 73.230469 59.425781 73.019531 59.363281 72.804688 C 59.0625 71.703125 58.816406 70.722656 58.933594 69.582031 C 59.53125 68.878906 60.046875 68.675781 60.953125 68.847656 Z M 60.953125 68.847656 "/>
<path style=" stroke:none;fill-rule:nonzero;fill:rgb(46.27451%,83.137256%,96.078432%);fill-opacity:1;" d="M 18.246094 30.5625 C 19.21875 30.757812 20.179688 31 21.140625 31.25 C 21.515625 31.347656 21.890625 31.441406 22.265625 31.535156 C 22.507812 31.597656 22.75 31.660156 22.992188 31.722656 C 23.207031 31.78125 23.425781 31.835938 23.648438 31.894531 C 24.328125 32.167969 24.6875 32.484375 25.152344 33.046875 C 25.28125 33.742188 25.203125 34.050781 24.875 34.675781 C 24.335938 35.136719 24.039062 35.121094 23.351562 35.101562 C 22.714844 35.046875 22.113281 34.894531 21.5 34.722656 C 21.367188 34.6875 21.238281 34.652344 21.101562 34.617188 C 20.828125 34.542969 20.554688 34.46875 20.28125 34.390625 C 19.859375 34.273438 19.441406 34.160156 19.019531 34.050781 C 18.753906 33.976562 18.484375 33.902344 18.21875 33.828125 C 18.09375 33.796875 17.96875 33.761719 17.839844 33.726562 C 17.207031 33.550781 16.730469 33.410156 16.339844 32.863281 C 16.140625 32.203125 16.097656 31.890625 16.386719 31.257812 C 16.960938 30.519531 17.34375 30.421875 18.246094 30.5625 Z M 18.246094 30.5625 "/>
<path style=" stroke:none;fill-rule:nonzero;fill:rgb(46.27451%,83.137256%,96.078432%);fill-opacity:1;" d="M 48.652344 -0.105469 C 49.191406 0.046875 49.394531 0.304688 49.753906 0.734375 C 49.925781 1.191406 50.066406 1.621094 50.1875 2.09375 C 50.222656 2.222656 50.257812 2.355469 50.296875 2.488281 C 50.371094 2.765625 50.441406 3.042969 50.515625 3.316406 C 50.625 3.738281 50.738281 4.160156 50.855469 4.578125 C 50.925781 4.847656 51 5.117188 51.070312 5.386719 C 51.105469 5.511719 51.136719 5.636719 51.171875 5.761719 C 51.421875 6.722656 51.601562 7.523438 51.132812 8.421875 C 50.574219 8.898438 50.277344 8.914062 49.570312 8.917969 C 49.03125 8.765625 48.828125 8.507812 48.46875 8.078125 C 48.296875 7.621094 48.15625 7.191406 48.035156 6.71875 C 48 6.589844 47.964844 6.457031 47.925781 6.324219 C 47.851562 6.046875 47.78125 5.769531 47.707031 5.496094 C 47.597656 5.074219 47.484375 4.652344 47.367188 4.234375 C 47.296875 3.964844 47.222656 3.695312 47.152344 3.425781 C 47.117188 3.300781 47.085938 3.175781 47.050781 3.050781 C 46.800781 2.089844 46.621094 1.289062 47.09375 0.390625 C 47.648438 -0.0859375 47.945312 -0.101562 48.652344 -0.105469 Z M 48.652344 -0.105469 "/>
<path style=" stroke:none;fill-rule:nonzero;fill:rgb(46.666667%,83.137256%,96.078432%);fill-opacity:1;" d="M 90.3125 43.378906 C 90.675781 43.476562 91.035156 43.574219 91.398438 43.667969 C 91.628906 43.730469 91.855469 43.792969 92.09375 43.859375 C 92.40625 43.945312 92.40625 43.945312 92.722656 44.03125 C 93.308594 44.261719 93.601562 44.496094 94 44.980469 C 94.144531 45.488281 94.117188 45.9375 94 46.449219 C 93.644531 46.917969 93.644531 46.917969 93.082031 47.183594 C 91.679688 47.117188 90.34375 46.757812 88.992188 46.398438 C 88.617188 46.300781 88.238281 46.203125 87.863281 46.109375 C 87.621094 46.046875 87.382812 45.980469 87.140625 45.917969 C 86.925781 45.859375 86.707031 45.804688 86.484375 45.746094 C 85.882812 45.515625 85.589844 45.292969 85.1875 44.796875 C 85.042969 44.289062 85.070312 43.84375 85.1875 43.328125 C 86.28125 41.832031 88.851562 42.972656 90.3125 43.378906 Z M 90.3125 43.378906 "/>
<path style=" stroke:none;fill-rule:nonzero;fill:rgb(46.27451%,83.137256%,96.078432%);fill-opacity:1;" d="M 77.84375 59.300781 C 78.324219 59.574219 78.6875 59.933594 79.070312 60.328125 C 79.234375 60.484375 79.234375 60.484375 79.398438 60.648438 C 79.625 60.875 79.851562 61.101562 80.074219 61.328125 C 80.414062 61.675781 80.761719 62.011719 81.109375 62.351562 C 81.332031 62.570312 81.550781 62.792969 81.769531 63.011719 C 81.871094 63.113281 81.976562 63.210938 82.082031 63.316406 C 82.761719 64.027344 82.910156 64.554688 82.890625 65.539062 C 82.777344 66 82.621094 66.171875 82.25 66.460938 C 81.636719 66.648438 81.304688 66.722656 80.722656 66.433594 C 80.140625 66.03125 79.644531 65.570312 79.144531 65.074219 C 79.042969 64.976562 78.941406 64.878906 78.839844 64.777344 C 78.628906 64.570312 78.417969 64.359375 78.210938 64.152344 C 77.890625 63.832031 77.566406 63.519531 77.242188 63.207031 C 77.039062 63.003906 76.835938 62.800781 76.628906 62.597656 C 76.535156 62.503906 76.4375 62.410156 76.335938 62.3125 C 75.734375 61.707031 75.480469 61.261719 75.457031 60.402344 C 75.972656 59.292969 76.652344 59.089844 77.84375 59.300781 Z M 77.84375 59.300781 "/>
<path style=" stroke:none;fill-rule:nonzero;fill:rgb(46.27451%,83.137256%,96.078432%);fill-opacity:1;" d="M 28.851562 11.125 C 29.6875 11.132812 30.070312 11.335938 30.652344 11.917969 C 30.746094 12.019531 30.84375 12.125 30.941406 12.230469 C 31.042969 12.335938 31.148438 12.441406 31.253906 12.550781 C 31.582031 12.882812 31.898438 13.222656 32.21875 13.5625 C 32.441406 13.789062 32.660156 14.015625 32.882812 14.242188 C 34.679688 16.097656 34.679688 16.097656 34.746094 16.960938 C 34.699219 17.625 34.699219 17.625 34.492188 18.0625 C 34.011719 18.480469 33.679688 18.53125 33.046875 18.542969 C 32.257812 18.152344 31.660156 17.585938 31.042969 16.972656 C 30.941406 16.875 30.839844 16.777344 30.738281 16.675781 C 30.527344 16.46875 30.316406 16.257812 30.109375 16.050781 C 29.789062 15.730469 29.464844 15.417969 29.140625 15.105469 C 28.9375 14.902344 28.734375 14.699219 28.527344 14.496094 C 28.433594 14.402344 28.335938 14.308594 28.234375 14.210938 C 27.632812 13.605469 27.378906 13.160156 27.355469 12.300781 C 27.761719 11.472656 27.941406 11.167969 28.851562 11.125 Z M 28.851562 11.125 "/>
<path style=" stroke:none;fill-rule:nonzero;fill:rgb(25.098041%,31.37255%,32.941177%);fill-opacity:1;" d="M 29.925781 57.464844 C 30.496094 57.71875 30.882812 58.011719 31.320312 58.449219 C 31.441406 58.570312 31.5625 58.691406 31.6875 58.816406 C 31.808594 58.941406 31.933594 59.066406 32.058594 59.199219 C 32.183594 59.324219 32.308594 59.449219 32.4375 59.578125 C 33.738281 60.886719 33.738281 60.886719 33.882812 61.722656 C 33.742188 62.6875 33.242188 63.273438 32.496094 63.890625 C 31.945312 63.890625 31.945312 63.890625 31.582031 63.59375 C 31.449219 63.457031 31.3125 63.320312 31.175781 63.179688 C 30.957031 62.960938 30.957031 62.960938 30.730469 62.734375 C 30.503906 62.5 30.503906 62.5 30.269531 62.261719 C 30.117188 62.105469 29.960938 61.953125 29.804688 61.792969 C 28.503906 60.472656 28.503906 60.472656 28.355469 59.644531 C 28.503906 58.597656 29.148438 58.132812 29.925781 57.464844 Z M 29.925781 57.464844 "/>
</g>
</svg>
